<?xml version="1.0" standalone="no"?>
<svg xmlns="http://www.w3.org/2000/svg" width="500" height="500"><defs><clipPath id="clip-path-dot-color"><path d="M 24 123v 11h 5.5a 5.5 5.5, 0, 0, 0, 0 -11" transform="rotate(180,29.5,128.5)"/><path d="M 24 156v 11h 11v -5.5a 5.5 5.5, 0, 0, 0, -5.5 -5.5" transform="rotate(-90,29.5,161.5)"/><rect x="24" y="167" width="11" height="11" transform="rotate(0,29.5,172.5)"/><rect x="24" y="178" width="11" height="11" transform="rotate(0,29.5,183.5)"/><path d="M 24 189v 11h 5.5a 5.5 5.5, 0, 0, 0, 0 -11" transform="rotate(90,29.5,194.5)"/><path d="M 24 255v 11h 5.5a 5.5 5.5, 0, 0, 0, 0 -11" transform="rotate(180,29.5,260.5)"/><path d="M 24 288v 11h 11v -5.5a 5.5 5.5, 0, 0, 0, -5.5 -5.5" transform="rotate(-90,29.5,293.5)"/><rect x="24" y="299" width="11" height="11" transform="rotate(0,29.5,304.5)"/><path d="M 24 310v 11h 5.5a 5.5 5.5, 0, 0, 0, 0 -11" transform="rotate(90,29.5,315.5)"/><path d="M 24 343v 11h 5.5a 5.5 5.5, 0, 0, 0, 0 -11" transform="rotate(-90,29.5,348.5)"/><path d="M 24 354v 11h 5.5a 5.5 5.5, 0, 0, 0, 0 -11" transform="rotate(90,29.5,359.5)"/><path d="M 35 112v 11h 5.5a 5.5 5.5, 0, 0, 0, 0 -11" transform="rotate(-90,40.5,117.5)"/><rect x="35" y="123" width="11" height="11" transform="rotate(0,40.5,128.5)"/><rect x="35" y="134" width="11" height="11" transform="rotate(0,40.5,139.5)"/><rect x="35" y="145" width="11" height="11" transform="rotate(0,40.5,150.5)"/><rect x="35" y="156" width="11" height="11" transform="rotate(0,40.5,161.5)"/><path d="M 35 167v 11h 11v -5.5a 5.5 5.5, 0, 0, 0, -5.5 -5.5" transform="rotate(90,40.5,172.5)"/><path d="M 35 211v 11h 5.5a 5.5 5.5, 0, 0, 0, 0 -11" transform="rotate(-90,40.5,216.5)"/><path d="M 35 222v 11h 5.5a 5.5 5.5, 0, 0, 0, 0 -11" transform="rotate(90,40.5,227.5)"/><path d="M 35 255v 11h 11v -5.5a 5.5 5.5, 0, 0, 0, -5.5 -5.5" transform="rotate(0,40.5,260.5)"/><path d="M 35 266v 11h 11v -5.5a 5.5 5.5, 0, 0, 0, -5.5 -5.5" transform="rotate(180,40.5,271.5)"/><rect x="35" y="288" width="11" height="11" transform="rotate(0,40.5,293.5)"/><circle cx="40.5" cy="337.5" r="5.5" transform="rotate(0,40.5,337.5)"/><circle cx="40.5" cy="370.5" r="5.5" transform="rotate(0,40.5,370.5)"/><path d="M 46 156v 11h 5.5a 5.5 5.5, 0, 0, 0, 0 -11" transform="rotate(0,51.5,161.5)"/><path d="M 46 189v 11h 11v -5.5a 5.5 5.5, 0, 0, 0, -5.5 -5.5" transform="rotate(-90,51.5,194.5)"/><path d="M 46 200v 11h 11v -5.5a 5.5 5.5, 0, 0, 0, -5.5 -5.5" transform="rotate(180,51.5,205.5)"/><circle cx="51.5" cy="238.5" r="5.5" transform="rotate(0,51.5,238.5)"/><path d="M 46 266v 11h 11v -5.5a 5.5 5.5, 0, 0, 0, -5.5 -5.5" transform="rotate(0,51.5,271.5)"/><rect x="46" y="277" width="11" height="11" transform="rotate(0,51.5,282.5)"/><rect x="46" y="288" width="11" height="11" transform="rotate(0,51.5,293.5)"/><path d="M 46 299v 11h 5.5a 5.5 5.5, 0, 0, 0, 0 -11" transform="rotate(90,51.5,304.5)"/><circle cx="51.5" cy="381.5" r="5.5" transform="rotate(0,51.5,381.5)"/><path d="M 57 112v 11h 5.5a 5.5 5.5, 0, 0, 0, 0 -11" transform="rotate(180,62.5,117.5)"/><circle cx="62.5" cy="150.5" r="5.5" transform="rotate(0,62.5,150.5)"/><path d="M 57 167v 11h 5.5a 5.5 5.5, 0, 0, 0, 0 -11" transform="rotate(180,62.5,172.5)"/><path d="M 57 189v 11h 11v -5.5a 5.5 5.5, 0, 0, 0, -5.5 -5.5" transform="rotate(0,62.5,194.5)"/><rect x="57" y="200" width="11" height="11" transform="rotate(0,62.5,205.5)"/><rect x="57" y="211" width="11" height="11" transform="rotate(0,62.5,216.5)"/><path d="M 57 222v 11h 11v -5.5a 5.5 5.5, 0, 0, 0, -5.5 -5.5" transform="rotate(180,62.5,227.5)"/><rect x="57" y="288" width="11" height="11" transform="rotate(0,62.5,293.5)"/><path d="M 57 310v 11h 11v -5.5a 5.5 5.5, 0, 0, 0, -5.5 -5.5" transform="rotate(-90,62.5,315.5)"/><rect x="57" y="321" width="11" height="11" transform="rotate(0,62.5,326.5)"/><rect x="57" y="332" width="11" height="11" transform="rotate(0,62.5,337.5)"/><path d="M 57 343v 11h 11v -5.5a 5.5 5.5, 0, 0, 0, -5.5 -5.5" transform="rotate(180,62.5,348.5)"/><path d="M 57 365v 11h 5.5a 5.5 5.5, 0, 0, 0, 0 -11" transform="rotate(180,62.5,370.5)"/><path d="M 68 112v 11h 5.5a 5.5 5.5, 0, 0, 0, 0 -11" transform="rotate(0,73.5,117.5)"/><circle cx="73.5" cy="139.5" r="5.5" transform="rotate(0,73.5,139.5)"/><rect x="68" y="167" width="11" height="11" transform="rotate(0,73.5,172.5)"/><path d="M 68 178v 11h 11v -5.5a 5.5 5.5, 0, 0, 0, -5.5 -5.5" transform="rotate(180,73.5,183.5)"/><rect x="68" y="211" width="11" height="11" transform="rotate(0,73.5,216.5)"/><path d="M 68 222v 11h 11v -5.5a 5.5 5.5, 0, 0, 0, -5.5 -5.5" transform="rotate(90,73.5,227.5)"/><path d="M 68 244v 11h 5.5a 5.5 5.5, 0, 0, 0, 0 -11" transform="rotate(180,73.5,249.5)"/><rect x="68" y="288" width="11" height="11" transform="rotate(0,73.5,293.5)"/><path d="M 68 310v 11h 11v -5.5a 5.5 5.5, 0, 0, 0, -5.5 -5.5" transform="rotate(0,73.5,315.5)"/><rect x="68" y="321" width="11" height="11" transform="rotate(0,73.5,326.5)"/><rect x="68" y="332" width="11" height="11" transform="rotate(0,73.5,337.5)"/><path d="M 68 343v 11h 11v -5.5a 5.5 5.5, 0, 0, 0, -5.5 -5.5" transform="rotate(90,73.5,348.5)"/><path d="M 68 365v 11h 5.5a 5.5 5.5, 0, 0, 0, 0 -11" transform="rotate(0,73.5,370.5)"/><circle cx="84.5" cy="128.5" r="5.5" transform="rotate(0,84.5,128.5)"/><path d="M 79 145v 11h 5.5a 5.5 5.5, 0, 0, 0, 0 -11" transform="rotate(-90,84.5,150.5)"/><rect x="79" y="156" width="11" height="11" transform="rotate(0,84.5,161.5)"/><rect x="79" y="167" width="11" height="11" transform="rotate(0,84.5,172.5)"/><rect x="79" y="178" width="11" height="11" transform="rotate(0,84.5,183.5)"/><rect x="79" y="189" width="11" height="11" transform="rotate(0,84.5,194.5)"/><rect x="79" y="200" width="11" height="11" transform="rotate(0,84.5,205.5)"/><path d="M 79 211v 11h 11v -5.5a 5.5 5.5, 0, 0, 0, -5.5 -5.5" transform="rotate(90,84.5,216.5)"/><path d="M 79 233v 11h 5.5a 5.5 5.5, 0, 0, 0, 0 -11" transform="rotate(-90,84.5,238.5)"/><rect x="79" y="244" width="11" height="11" transform="rotate(0,84.5,249.5)"/><path d="M 79 266v 11h 11v -5.5a 5.5 5.5, 0, 0, 0, -5.5 -5.5" transform="rotate(-90,84.5,271.5)"/><rect x="79" y="277" width="11" height="11" transform="rotate(0,84.5,282.5)"/><rect x="79" y="288" width="11" height="11" transform="rotate(0,84.5,293.5)"/><path d="M 79 299v 11h 5.5a 5.5 5.5, 0, 0, 0, 0 -11" transform="rotate(90,84.5,304.5)"/><rect x="79" y="332" width="11" height="11" transform="rotate(0,84.5,337.5)"/><path d="M 79 376v 11h 5.5a 5.5 5.5, 0, 0, 0, 0 -11" transform="rotate(180,84.5,381.5)"/><path d="M 90 112v 11h 5.5a 5.5 5.5, 0, 0, 0, 0 -11" transform="rotate(180,95.5,117.5)"/><circle cx="95.5" cy="139.5" r="5.5" transform="rotate(0,95.5,139.5)"/><rect x="90" y="156" width="11" height="11" transform="rotate(0,95.5,161.5)"/><path d="M 90 178v 11h 5.5a 5.5 5.5, 0, 0, 0, 0 -11" transform="rotate(0,95.5,183.5)"/><path d="M 90 200v 11h 5.5a 5.5 5.5, 0, 0, 0, 0 -11" transform="rotate(0,95.5,205.5)"/><path d="M 90 222v 11h 5.5a 5.5 5.5, 0, 0, 0, 0 -11" transform="rotate(180,95.5,227.5)"/><rect x="90" y="244" width="11" height="11" transform="rotate(0,95.5,249.5)"/><path d="M 90 266v 11h 5.5a 5.5 5.5, 0, 0, 0, 0 -11" transform="rotate(0,95.5,271.5)"/><rect x="90" y="288" width="11" height="11" transform="rotate(0,95.5,293.5)"/><path d="M 90 310v 11h 5.5a 5.5 5.5, 0, 0, 0, 0 -11" transform="rotate(180,95.5,315.5)"/><rect x="90" y="332" width="11" height="11" transform="rotate(0,95.5,337.5)"/><circle cx="95.5" cy="359.5" r="5.5" transform="rotate(0,95.5,359.5)"/><path d="M 90 376v 11h 5.5a 5.5 5.5, 0, 0, 0, 0 -11" transform="rotate(0,95.5,381.5)"/><rect x="101" y="112" width="11" height="11" transform="rotate(0,106.5,117.5)"/><path d="M 101 145v 11h 5.5a 5.5 5.5, 0, 0, 0, 0 -11" transform="rotate(-90,106.5,150.5)"/><rect x="101" y="156" width="11" height="11" transform="rotate(0,106.5,161.5)"/><path d="M 101 167v 11h 11v -5.5a 5.5 5.5, 0, 0, 0, -5.5 -5.5" transform="rotate(180,106.5,172.5)"/><circle cx="106.5" cy="194.5" r="5.5" transform="rotate(0,106.5,194.5)"/><rect x="101" y="222" width="11" height="11" transform="rotate(0,106.5,227.5)"/><rect x="101" y="244" width="11" height="11" transform="rotate(0,106.5,249.5)"/><path d="M 101 255v 11h 5.5a 5.5 5.5, 0, 0, 0, 0 -11" transform="rotate(90,106.5,260.5)"/><rect x="101" y="288" width="11" height="11" transform="rotate(0,106.5,293.5)"/><rect x="101" y="299" width="11" height="11" transform="rotate(0,106.5,304.5)"/><path d="M 101 310v 11h 11v -5.5a 5.5 5.5, 0, 0, 0, -5.5 -5.5" transform="rotate(90,106.5,315.5)"/><rect x="101" y="332" width="11" height="11" transform="rotate(0,106.5,337.5)"/><path d="M 101 365v 11h 5.5a 5.5 5.5, 0, 0, 0, 0 -11" transform="rotate(180,106.5,370.5)"/><circle cx="117.5" cy="40.5" r="5.5" transform="rotate(0,117.5,40.5)"/><path d="M 112 57v 11h 11v -5.5a 5.5 5.5, 0, 0, 0, -5.5 -5.5" transform="rotate(-90,117.5,62.5)"/><rect x="112" y="68" width="11" height="11" transform="rotate(0,117.5,73.5)"/><rect x="112" y="79" width="11" height="11" transform="rotate(0,117.5,84.5)"/><path d="M 112 90v 11h 5.5a 5.5 5.5, 0, 0, 0, 0 -11" transform="rotate(90,117.5,95.5)"/><path d="M 112 112v 11h 11v -5.5a 5.5 5.5, 0, 0, 0, -5.5 -5.5" transform="rotate(0,117.5,117.5)"/><path d="M 112 123v 11h 5.5a 5.5 5.5, 0, 0, 0, 0 -11" transform="rotate(90,117.5,128.5)"/><path d="M 112 167v 11h 5.5a 5.5 5.5, 0, 0, 0, 0 -11" transform="rotate(0,117.5,172.5)"/><path d="M 112 222v 11h 11v -5.5a 5.5 5.5, 0, 0, 0, -5.5 -5.5" transform="rotate(0,117.5,227.5)"/><rect x="112" y="233" width="11" height="11" transform="rotate(0,117.5,238.5)"/><path d="M 112 244v 11h 11v -5.5a 5.5 5.5, 0, 0, 0, -5.5 -5.5" transform="rotate(90,117.5,249.5)"/><path d="M 112 277v 11h 5.5a 5.5 5.5, 0, 0, 0, 0 -11" transform="rotate(-90,117.5,282.5)"/><rect x="112" y="288" width="11" height="11" transform="rotate(0,117.5,293.5)"/><path d="M 112 321v 11h 11v -5.5a 5.5 5.5, 0, 0, 0, -5.5 -5.5" transform="rotate(-90,117.5,326.5)"/><rect x="112" y="332" width="11" height="11" transform="rotate(0,117.5,337.5)"/><path d="M 112 343v 11h 5.5a 5.5 5.5, 0, 0, 0, 0 -11" transform="rotate(90,117.5,348.5)"/><rect x="112" y="365" width="11" height="11" transform="rotate(0,117.5,370.5)"/><path d="M 112 387v 11h 11v -5.5a 5.5 5.5, 0, 0, 0, -5.5 -5.5" transform="rotate(-90,117.5,392.5)"/><path d="M 112 398v 11h 5.5a 5.5 5.5, 0, 0, 0, 0 -11" transform="rotate(90,117.5,403.5)"/><path d="M 112 420v 11h 11v -5.5a 5.5 5.5, 0, 0, 0, -5.5 -5.5" transform="rotate(-90,117.5,425.5)"/><path d="M 112 431v 11h 5.5a 5.5 5.5, 0, 0, 0, 0 -11" transform="rotate(90,117.5,436.5)"/><circle cx="117.5" cy="458.5" r="5.5" transform="rotate(0,117.5,458.5)"/><path d="M 123 24v 11h 5.5a 5.5 5.5, 0, 0, 0, 0 -11" transform="rotate(180,128.5,29.5)"/><path d="M 123 57v 11h 11v -5.5a 5.5 5.5, 0, 0, 0, -5.5 -5.5" transform="rotate(0,128.5,62.5)"/><path d="M 123 68v 11h 11v -5.5a 5.5 5.5, 0, 0, 0, -5.5 -5.5" transform="rotate(90,128.5,73.5)"/><circle cx="128.5" cy="106.5" r="5.5" transform="rotate(0,128.5,106.5)"/><path d="M 123 134v 11h 11v -5.5a 5.5 5.5, 0, 0, 0, -5.5 -5.5" transform="rotate(-90,128.5,139.5)"/><rect x="123" y="145" width="11" height="11" transform="rotate(0,128.5,150.5)"/><path d="M 123 156v 11h 5.5a 5.5 5.5, 0, 0, 0, 0 -11" transform="rotate(90,128.5,161.5)"/><path d="M 123 178v 11h 5.5a 5.5 5.5, 0, 0, 0, 0 -11" transform="rotate(-90,128.5,183.5)"/><rect x="123" y="189" width="11" height="11" transform="rotate(0,128.5,194.5)"/><path d="M 123 200v 11h 11v -5.5a 5.5 5.5, 0, 0, 0, -5.5 -5.5" transform="rotate(180,128.5,205.5)"/><path d="M 123 266v 11h 5.5a 5.5 5.5, 0, 0, 0, 0 -11" transform="rotate(180,128.5,271.5)"/><path d="M 123 288v 11h 11v -5.5a 5.5 5.5, 0, 0, 0, -5.5 -5.5" transform="rotate(0,128.5,293.5)"/><rect x="123" y="299" width="11" height="11" transform="rotate(0,128.5,304.5)"/><rect x="123" y="310" width="11" height="11" transform="rotate(0,128.5,315.5)"/><rect x="123" y="321" width="11" height="11" transform="rotate(0,128.5,326.5)"/><path d="M 123 354v 11h 5.5a 5.5 5.5, 0, 0, 0, 0 -11" transform="rotate(-90,128.5,359.5)"/><path d="M 123 365v 11h 11v -5.5a 5.5 5.5, 0, 0, 0, -5.5 -5.5" transform="rotate(90,128.5,370.5)"/><rect x="123" y="387" width="11" height="11" transform="rotate(0,128.5,392.5)"/><path d="M 123 409v 11h 5.5a 5.5 5.5, 0, 0, 0, 0 -11" transform="rotate(-90,128.5,414.5)"/><rect x="123" y="420" width="11" height="11" transform="rotate(0,128.5,425.5)"/><circle cx="128.5" cy="469.5" r="5.5" transform="rotate(0,128.5,469.5)"/><path d="M 134 24v 11h 5.5a 5.5 5.5, 0, 0, 0, 0 -11" transform="rotate(0,139.5,29.5)"/><circle cx="139.5" cy="51.5" r="5.5" transform="rotate(0,139.5,51.5)"/><path d="M 134 79v 11h 5.5a 5.5 5.5, 0, 0, 0, 0 -11" transform="rotate(-90,139.5,84.5)"/><path d="M 134 90v 11h 5.5a 5.5 5.5, 0, 0, 0, 0 -11" transform="rotate(90,139.5,95.5)"/><path d="M 134 123v 11h 5.5a 5.5 5.5, 0, 0, 0, 0 -11" transform="rotate(-90,139.5,128.5)"/><path d="M 134 134v 11h 11v -5.5a 5.5 5.5, 0, 0, 0, -5.5 -5.5" transform="rotate(90,139.5,139.5)"/><path d="M 134 167v 11h 5.5a 5.5 5.5, 0, 0, 0, 0 -11" transform="rotate(180,139.5,172.5)"/><path d="M 134 200v 11h 11v -5.5a 5.5 5.5, 0, 0, 0, -5.5 -5.5" transform="rotate(0,139.5,205.5)"/><path d="M 134 211v 11h 11v -5.5a 5.5 5.5, 0, 0, 0, -5.5 -5.5" transform="rotate(180,139.5,216.5)"/><path d="M 134 233v 11h 11v -5.5a 5.5 5.5, 0, 0, 0, -5.5 -5.5" transform="rotate(-90,139.5,238.5)"/><rect x="134" y="244" width="11" height="11" transform="rotate(0,139.5,249.5)"/><rect x="134" y="255" width="11" height="11" transform="rotate(0,139.5,260.5)"/><rect x="134" y="266" width="11" height="11" transform="rotate(0,139.5,271.5)"/><path d="M 134 321v 11h 11v -5.5a 5.5 5.5, 0, 0, 0, -5.5 -5.5" transform="rotate(0,139.5,326.5)"/><rect x="134" y="332" width="11" height="11" transform="rotate(0,139.5,337.5)"/><path d="M 134 343v 11h 11v -5.5a 5.5 5.5, 0, 0, 0, -5.5 -5.5" transform="rotate(180,139.5,348.5)"/><path d="M 134 387v 11h 5.5a 5.5 5.5, 0, 0, 0, 0 -11" transform="rotate(0,139.5,392.5)"/><rect x="134" y="420" width="11" height="11" transform="rotate(0,139.5,425.5)"/><circle cx="139.5" cy="447.5" r="5.5" transform="rotate(0,139.5,447.5)"/><circle cx="150.5" cy="40.5" r="5.5" transform="rotate(0,150.5,40.5)"/><path d="M 145 101v 11h 5.5a 5.5 5.5, 0, 0, 0, 0 -11" transform="rotate(-90,150.5,106.5)"/><path d="M 145 112v 11h 5.5a 5.5 5.5, 0, 0, 0, 0 -11" transform="rotate(90,150.5,117.5)"/><path d="M 145 156v 11h 11v -5.5a 5.5 5.5, 0, 0, 0, -5.5 -5.5" transform="rotate(-90,150.5,161.5)"/><rect x="145" y="167" width="11" height="11" transform="rotate(0,150.5,172.5)"/><path d="M 145 189v 11h 5.5a 5.5 5.5, 0, 0, 0, 0 -11" transform="rotate(180,150.5,194.5)"/><path d="M 145 211v 11h 11v -5.5a 5.5 5.5, 0, 0, 0, -5.5 -5.5" transform="rotate(0,150.5,216.5)"/><rect x="145" y="222" width="11" height="11" transform="rotate(0,150.5,227.5)"/><path d="M 145 233v 11h 11v -5.5a 5.5 5.5, 0, 0, 0, -5.5 -5.5" transform="rotate(90,150.5,238.5)"/><rect x="145" y="266" width="11" height="11" transform="rotate(0,150.5,271.5)"/><rect x="145" y="277" width="11" height="11" transform="rotate(0,150.5,282.5)"/><path d="M 145 288v 11h 5.5a 5.5 5.5, 0, 0, 0, 0 -11" transform="rotate(90,150.5,293.5)"/><path d="M 145 343v 11h 11v -5.5a 5.5 5.5, 0, 0, 0, -5.5 -5.5" transform="rotate(0,150.5,348.5)"/><rect x="145" y="354" width="11" height="11" transform="rotate(0,150.5,359.5)"/><rect x="145" y="365" width="11" height="11" transform="rotate(0,150.5,370.5)"/><path d="M 145 376v 11h 11v -5.5a 5.5 5.5, 0, 0, 0, -5.5 -5.5" transform="rotate(180,150.5,381.5)"/><path d="M 145 398v 11h 11v -5.5a 5.5 5.5, 0, 0, 0, -5.5 -5.5" transform="rotate(-90,150.5,403.5)"/><rect x="145" y="409" width="11" height="11" transform="rotate(0,150.5,414.5)"/><rect x="145" y="420" width="11" height="11" transform="rotate(0,150.5,425.5)"/><path d="M 145 431v 11h 5.5a 5.5 5.5, 0, 0, 0, 0 -11" transform="rotate(90,150.5,436.5)"/><path d="M 145 464v 11h 5.5a 5.5 5.5, 0, 0, 0, 0 -11" transform="rotate(180,150.5,469.5)"/><path d="M 156 46v 11h 5.5a 5.5 5.5, 0, 0, 0, 0 -11" transform="rotate(180,161.5,51.5)"/><path d="M 156 68v 11h 11v -5.5a 5.5 5.5, 0, 0, 0, -5.5 -5.5" transform="rotate(-90,161.5,73.5)"/><rect x="156" y="79" width="11" height="11" transform="rotate(0,161.5,84.5)"/><path d="M 156 90v 11h 5.5a 5.5 5.5, 0, 0, 0, 0 -11" transform="rotate(90,161.5,95.5)"/><path d="M 156 145v 11h 5.5a 5.5 5.5, 0, 0, 0, 0 -11" transform="rotate(-90,161.5,150.5)"/><rect x="156" y="156" width="11" height="11" transform="rotate(0,161.5,161.5)"/><rect x="156" y="167" width="11" height="11" transform="rotate(0,161.5,172.5)"/><rect x="156" y="178" width="11" height="11" transform="rotate(0,161.5,183.5)"/><rect x="156" y="189" width="11" height="11" transform="rotate(0,161.5,194.5)"/><rect x="156" y="222" width="11" height="11" transform="rotate(0,161.5,227.5)"/><path d="M 156 255v 11h 11v -5.5a 5.5 5.5, 0, 0, 0, -5.5 -5.5" transform="rotate(-90,161.5,260.5)"/><rect x="156" y="266" width="11" height="11" transform="rotate(0,161.5,271.5)"/><path d="M 156 277v 11h 11v -5.5a 5.5 5.5, 0, 0, 0, -5.5 -5.5" transform="rotate(90,161.5,282.5)"/><circle cx="161.5" cy="304.5" r="5.5" transform="rotate(0,161.5,304.5)"/><path d="M 156 321v 11h 11v -5.5a 5.5 5.5, 0, 0, 0, -5.5 -5.5" transform="rotate(-90,161.5,326.5)"/><path d="M 156 332v 11h 11v -5.5a 5.5 5.5, 0, 0, 0, -5.5 -5.5" transform="rotate(180,161.5,337.5)"/><path d="M 156 376v 11h 5.5a 5.5 5.5, 0, 0, 0, 0 -11" transform="rotate(0,161.5,381.5)"/><rect x="156" y="398" width="11" height="11" transform="rotate(0,161.5,403.5)"/><rect x="156" y="409" width="11" height="11" transform="rotate(0,161.5,414.5)"/><rect x="156" y="464" width="11" height="11" transform="rotate(0,161.5,469.5)"/><rect x="167" y="46" width="11" height="11" transform="rotate(0,172.5,51.5)"/><rect x="167" y="68" width="11" height="11" transform="rotate(0,172.5,73.5)"/><path d="M 167 101v 11h 5.5a 5.5 5.5, 0, 0, 0, 0 -11" transform="rotate(-90,172.5,106.5)"/><path d="M 167 112v 11h 5.5a 5.5 5.5, 0, 0, 0, 0 -11" transform="rotate(90,172.5,117.5)"/><path d="M 167 178v 11h 11v -5.5a 5.5 5.5, 0, 0, 0, -5.5 -5.5" transform="rotate(0,172.5,183.5)"/><path d="M 167 189v 11h 11v -5.5a 5.5 5.5, 0, 0, 0, -5.5 -5.5" transform="rotate(90,172.5,194.5)"/><path d="M 167 211v 11h 11v -5.5a 5.5 5.5, 0, 0, 0, -5.5 -5.5" transform="rotate(-90,172.5,216.5)"/><rect x="167" y="222" width="11" height="11" transform="rotate(0,172.5,227.5)"/><path d="M 167 255v 11h 5.5a 5.5 5.5, 0, 0, 0, 0 -11" transform="rotate(0,172.5,260.5)"/><circle cx="172.5" cy="293.5" r="5.5" transform="rotate(0,172.5,293.5)"/><rect x="167" y="321" width="11" height="11" transform="rotate(0,172.5,326.5)"/><rect x="167" y="332" width="11" height="11" transform="rotate(0,172.5,337.5)"/><rect x="167" y="398" width="11" height="11" transform="rotate(0,172.5,403.5)"/><rect x="167" y="409" width="11" height="11" transform="rotate(0,172.5,414.5)"/><rect x="167" y="420" width="11" height="11" transform="rotate(0,172.5,425.5)"/><rect x="167" y="431" width="11" height="11" transform="rotate(0,172.5,436.5)"/><path d="M 167 442v 11h 5.5a 5.5 5.5, 0, 0, 0, 0 -11" transform="rotate(90,172.5,447.5)"/><rect x="167" y="464" width="11" height="11" transform="rotate(0,172.5,469.5)"/><rect x="178" y="46" width="11" height="11" transform="rotate(0,183.5,51.5)"/><rect x="178" y="57" width="11" height="11" transform="rotate(0,183.5,62.5)"/><rect x="178" y="68" width="11" height="11" transform="rotate(0,183.5,73.5)"/><circle cx="183.5" cy="95.5" r="5.5" transform="rotate(0,183.5,95.5)"/><path d="M 178 156v 11h 5.5a 5.5 5.5, 0, 0, 0, 0 -11" transform="rotate(-90,183.5,161.5)"/><path d="M 178 167v 11h 11v -5.5a 5.5 5.5, 0, 0, 0, -5.5 -5.5" transform="rotate(180,183.5,172.5)"/><path d="M 178 211v 11h 11v -5.5a 5.5 5.5, 0, 0, 0, -5.5 -5.5" transform="rotate(0,183.5,216.5)"/><path d="M 178 222v 11h 11v -5.5a 5.5 5.5, 0, 0, 0, -5.5 -5.5" transform="rotate(90,183.5,227.5)"/><path d="M 178 244v 11h 5.5a 5.5 5.5, 0, 0, 0, 0 -11" transform="rotate(180,183.5,249.5)"/><path d="M 178 299v 11h 5.5a 5.5 5.5, 0, 0, 0, 0 -11" transform="rotate(-90,183.5,304.5)"/><rect x="178" y="310" width="11" height="11" transform="rotate(0,183.5,315.5)"/><rect x="178" y="321" width="11" height="11" transform="rotate(0,183.5,326.5)"/><rect x="178" y="332" width="11" height="11" transform="rotate(0,183.5,337.5)"/><rect x="178" y="343" width="11" height="11" transform="rotate(0,183.5,348.5)"/><rect x="178" y="354" width="11" height="11" transform="rotate(0,183.5,359.5)"/><path d="M 178 365v 11h 5.5a 5.5 5.5, 0, 0, 0, 0 -11" transform="rotate(90,183.5,370.5)"/><path d="M 178 387v 11h 11v -5.5a 5.5 5.5, 0, 0, 0, -5.5 -5.5" transform="rotate(-90,183.5,392.5)"/><rect x="178" y="398" width="11" height="11" transform="rotate(0,183.5,403.5)"/><rect x="178" y="409" width="11" height="11" transform="rotate(0,183.5,414.5)"/><rect x="178" y="420" width="11" height="11" transform="rotate(0,183.5,425.5)"/><path d="M 178 464v 11h 5.5a 5.5 5.5, 0, 0, 0, 0 -11" transform="rotate(0,183.5,469.5)"/><path d="M 189 35v 11h 5.5a 5.5 5.5, 0, 0, 0, 0 -11" transform="rotate(-90,194.5,40.5)"/><rect x="189" y="46" width="11" height="11" transform="rotate(0,194.5,51.5)"/><rect x="189" y="57" width="11" height="11" transform="rotate(0,194.5,62.5)"/><rect x="189" y="68" width="11" height="11" transform="rotate(0,194.5,73.5)"/><path d="M 189 79v 11h 5.5a 5.5 5.5, 0, 0, 0, 0 -11" transform="rotate(90,194.5,84.5)"/><circle cx="194.5" cy="106.5" r="5.5" transform="rotate(0,194.5,106.5)"/><path d="M 189 123v 11h 5.5a 5.5 5.5, 0, 0, 0, 0 -11" transform="rotate(180,194.5,128.5)"/><path d="M 189 167v 11h 5.5a 5.5 5.5, 0, 0, 0, 0 -11" transform="rotate(0,194.5,172.5)"/><path d="M 189 189v 11h 5.5a 5.5 5.5, 0, 0, 0, 0 -11" transform="rotate(180,194.5,194.5)"/><path d="M 189 233v 11h 5.5a 5.5 5.5, 0, 0, 0, 0 -11" transform="rotate(-90,194.5,238.5)"/><rect x="189" y="244" width="11" height="11" transform="rotate(0,194.5,249.5)"/><path d="M 189 255v 11h 5.5a 5.5 5.5, 0, 0, 0, 0 -11" transform="rotate(90,194.5,260.5)"/><path d="M 189 288v 11h 5.5a 5.5 5.5, 0, 0, 0, 0 -11" transform="rotate(180,194.5,293.5)"/><path d="M 189 354v 11h 5.5a 5.5 5.5, 0, 0, 0, 0 -11" transform="rotate(0,194.5,359.5)"/><rect x="189" y="387" width="11" height="11" transform="rotate(0,194.5,392.5)"/><path d="M 189 409v 11h 11v -5.5a 5.5 5.5, 0, 0, 0, -5.5 -5.5" transform="rotate(0,194.5,414.5)"/><rect x="189" y="420" width="11" height="11" transform="rotate(0,194.5,425.5)"/><rect x="189" y="431" width="11" height="11" transform="rotate(0,194.5,436.5)"/><path d="M 189 442v 11h 5.5a 5.5 5.5, 0, 0, 0, 0 -11" transform="rotate(90,194.5,447.5)"/><path d="M 200 46v 11h 11v -5.5a 5.5 5.5, 0, 0, 0, -5.5 -5.5" transform="rotate(0,205.5,51.5)"/><path d="M 200 57v 11h 11v -5.5a 5.5 5.5, 0, 0, 0, -5.5 -5.5" transform="rotate(90,205.5,62.5)"/><circle cx="205.5" cy="95.5" r="5.5" transform="rotate(0,205.5,95.5)"/><path d="M 200 123v 11h 11v -5.5a 5.5 5.5, 0, 0, 0, -5.5 -5.5" transform="rotate(0,205.5,128.5)"/><rect x="200" y="134" width="11" height="11" transform="rotate(0,205.5,139.5)"/><path d="M 200 145v 11h 11v -5.5a 5.5 5.5, 0, 0, 0, -5.5 -5.5" transform="rotate(180,205.5,150.5)"/><path d="M 200 189v 11h 11v -5.5a 5.5 5.5, 0, 0, 0, -5.5 -5.5" transform="rotate(0,205.5,194.5)"/><rect x="200" y="200" width="11" height="11" transform="rotate(0,205.5,205.5)"/><path d="M 200 211v 11h 11v -5.5a 5.5 5.5, 0, 0, 0, -5.5 -5.5" transform="rotate(180,205.5,216.5)"/><path d="M 200 266v 11h 11v -5.5a 5.5 5.5, 0, 0, 0, -5.5 -5.5" transform="rotate(-90,205.5,271.5)"/><rect x="200" y="277" width="11" height="11" transform="rotate(0,205.5,282.5)"/><rect x="200" y="288" width="11" height="11" transform="rotate(0,205.5,293.5)"/><path d="M 200 299v 11h 11v -5.5a 5.5 5.5, 0, 0, 0, -5.5 -5.5" transform="rotate(180,205.5,304.5)"/><path d="M 200 321v 11h 5.5a 5.5 5.5, 0, 0, 0, 0 -11" transform="rotate(180,205.5,326.5)"/><path d="M 200 376v 11h 5.5a 5.5 5.5, 0, 0, 0, 0 -11" transform="rotate(-90,205.5,381.5)"/><rect x="200" y="387" width="11" height="11" transform="rotate(0,205.5,392.5)"/><circle cx="205.5" cy="458.5" r="5.5" transform="rotate(0,205.5,458.5)"/><path d="M 211 24v 11h 5.5a 5.5 5.5, 0, 0, 0, 0 -11" transform="rotate(180,216.5,29.5)"/><circle cx="216.5" cy="117.5" r="5.5" transform="rotate(0,216.5,117.5)"/><path d="M 211 134v 11h 11v -5.5a 5.5 5.5, 0, 0, 0, -5.5 -5.5" transform="rotate(0,216.5,139.5)"/><rect x="211" y="145" width="11" height="11" transform="rotate(0,216.5,150.5)"/><rect x="211" y="156" width="11" height="11" transform="rotate(0,216.5,161.5)"/><path d="M 211 167v 11h 11v -5.5a 5.5 5.5, 0, 0, 0, -5.5 -5.5" transform="rotate(180,216.5,172.5)"/><path d="M 211 211v 11h 5.5a 5.5 5.5, 0, 0, 0, 0 -11" transform="rotate(0,216.5,216.5)"/><path d="M 211 255v 11h 5.5a 5.5 5.5, 0, 0, 0, 0 -11" transform="rotate(-90,216.5,260.5)"/><rect x="211" y="266" width="11" height="11" transform="rotate(0,216.5,271.5)"/><rect x="211" y="288" width="11" height="11" transform="rotate(0,216.5,293.5)"/><path d="M 211 299v 11h 11v -5.5a 5.5 5.5, 0, 0, 0, -5.5 -5.5" transform="rotate(90,216.5,304.5)"/><rect x="211" y="321" width="11" height="11" transform="rotate(0,216.5,326.5)"/><rect x="211" y="332" width="11" height="11" transform="rotate(0,216.5,337.5)"/><rect x="211" y="343" width="11" height="11" transform="rotate(0,216.5,348.5)"/><rect x="211" y="354" width="11" height="11" transform="rotate(0,216.5,359.5)"/><path d="M 211 365v 11h 11v -5.5a 5.5 5.5, 0, 0, 0, -5.5 -5.5" transform="rotate(180,216.5,370.5)"/><path d="M 211 387v 11h 5.5a 5.5 5.5, 0, 0, 0, 0 -11" transform="rotate(0,216.5,392.5)"/><path d="M 211 420v 11h 11v -5.5a 5.5 5.5, 0, 0, 0, -5.5 -5.5" transform="rotate(-90,216.5,425.5)"/><path d="M 211 431v 11h 5.5a 5.5 5.5, 0, 0, 0, 0 -11" transform="rotate(90,216.5,436.5)"/><path d="M 211 464v 11h 5.5a 5.5 5.5, 0, 0, 0, 0 -11" transform="rotate(180,216.5,469.5)"/><rect x="222" y="24" width="11" height="11" transform="rotate(0,227.5,29.5)"/><rect x="222" y="35" width="11" height="11" transform="rotate(0,227.5,40.5)"/><path d="M 222 46v 11h 11v -5.5a 5.5 5.5, 0, 0, 0, -5.5 -5.5" transform="rotate(180,227.5,51.5)"/><circle cx="227.5" cy="95.5" r="5.5" transform="rotate(0,227.5,95.5)"/><path d="M 222 123v 11h 5.5a 5.5 5.5, 0, 0, 0, 0 -11" transform="rotate(180,227.5,128.5)"/><rect x="222" y="167" width="11" height="11" transform="rotate(0,227.5,172.5)"/><path d="M 222 178v 11h 11v -5.5a 5.5 5.5, 0, 0, 0, -5.5 -5.5" transform="rotate(180,227.5,183.5)"/><path d="M 222 222v 11h 5.5a 5.5 5.5, 0, 0, 0, 0 -11" transform="rotate(180,227.5,227.5)"/><circle cx="227.5" cy="249.5" r="5.5" transform="rotate(0,227.5,249.5)"/><path d="M 222 266v 11h 11v -5.5a 5.5 5.5, 0, 0, 0, -5.5 -5.5" transform="rotate(0,227.5,271.5)"/><rect x="222" y="277" width="11" height="11" transform="rotate(0,227.5,282.5)"/><path d="M 222 288v 11h 11v -5.5a 5.5 5.5, 0, 0, 0, -5.5 -5.5" transform="rotate(90,227.5,293.5)"/><rect x="222" y="321" width="11" height="11" transform="rotate(0,227.5,326.5)"/><path d="M 222 332v 11h 11v -5.5a 5.5 5.5, 0, 0, 0, -5.5 -5.5" transform="rotate(90,227.5,337.5)"/><rect x="222" y="354" width="11" height="11" transform="rotate(0,227.5,359.5)"/><rect x="222" y="365" width="11" height="11" transform="rotate(0,227.5,370.5)"/><path d="M 222 376v 11h 11v -5.5a 5.5 5.5, 0, 0, 0, -5.5 -5.5" transform="rotate(180,227.5,381.5)"/><path d="M 222 398v 11h 5.5a 5.5 5.5, 0, 0, 0, 0 -11" transform="rotate(-90,227.5,403.5)"/><rect x="222" y="409" width="11" height="11" transform="rotate(0,227.5,414.5)"/><rect x="222" y="420" width="11" height="11" transform="rotate(0,227.5,425.5)"/><path d="M 222 442v 11h 5.5a 5.5 5.5, 0, 0, 0, 0 -11" transform="rotate(180,227.5,447.5)"/><rect x="222" y="464" width="11" height="11" transform="rotate(0,227.5,469.5)"/><rect x="233" y="24" width="11" height="11" transform="rotate(0,238.5,29.5)"/><path d="M 233 46v 11h 11v -5.5a 5.5 5.5, 0, 0, 0, -5.5 -5.5" transform="rotate(0,238.5,51.5)"/><path d="M 233 57v 11h 5.5a 5.5 5.5, 0, 0, 0, 0 -11" transform="rotate(90,238.5,62.5)"/><path d="M 233 79v 11h 5.5a 5.5 5.5, 0, 0, 0, 0 -11" transform="rotate(180,238.5,84.5)"/><path d="M 233 123v 11h 5.5a 5.5 5.5, 0, 0, 0, 0 -11" transform="rotate(0,238.5,128.5)"/><path d="M 233 145v 11h 5.5a 5.5 5.5, 0, 0, 0, 0 -11" transform="rotate(-90,238.5,150.5)"/><rect x="233" y="156" width="11" height="11" transform="rotate(0,238.5,161.5)"/><rect x="233" y="167" width="11" height="11" transform="rotate(0,238.5,172.5)"/><rect x="233" y="178" width="11" height="11" transform="rotate(0,238.5,183.5)"/><path d="M 233 200v 11h 5.5a 5.5 5.5, 0, 0, 0, 0 -11" transform="rotate(-90,238.5,205.5)"/><rect x="233" y="211" width="11" height="11" transform="rotate(0,238.5,216.5)"/><path d="M 233 222v 11h 11v -5.5a 5.5 5.5, 0, 0, 0, -5.5 -5.5" transform="rotate(90,238.5,227.5)"/><circle cx="238.5" cy="260.5" r="5.5" transform="rotate(0,238.5,260.5)"/><rect x="233" y="277" width="11" height="11" transform="rotate(0,238.5,282.5)"/><path d="M 233 310v 11h 11v -5.5a 5.5 5.5, 0, 0, 0, -5.5 -5.5" transform="rotate(-90,238.5,315.5)"/><rect x="233" y="321" width="11" height="11" transform="rotate(0,238.5,326.5)"/><rect x="233" y="354" width="11" height="11" transform="rotate(0,238.5,359.5)"/><rect x="233" y="365" width="11" height="11" transform="rotate(0,238.5,370.5)"/><path d="M 233 376v 11h 11v -5.5a 5.5 5.5, 0, 0, 0, -5.5 -5.5" transform="rotate(90,238.5,381.5)"/><rect x="233" y="420" width="11" height="11" transform="rotate(0,238.5,425.5)"/><rect x="233" y="442" width="11" height="11" transform="rotate(0,238.5,447.5)"/><rect x="233" y="453" width="11" height="11" transform="rotate(0,238.5,458.5)"/><path d="M 233 464v 11h 11v -5.5a 5.5 5.5, 0, 0, 0, -5.5 -5.5" transform="rotate(90,238.5,469.5)"/><path d="M 244 24v 11h 11v -5.5a 5.5 5.5, 0, 0, 0, -5.5 -5.5" transform="rotate(0,249.5,29.5)"/><path d="M 244 35v 11h 5.5a 5.5 5.5, 0, 0, 0, 0 -11" transform="rotate(90,249.5,40.5)"/><rect x="244" y="79" width="11" height="11" transform="rotate(0,249.5,84.5)"/><path d="M 244 90v 11h 5.5a 5.5 5.5, 0, 0, 0, 0 -11" transform="rotate(90,249.5,95.5)"/><path d="M 244 134v 11h 5.5a 5.5 5.5, 0, 0, 0, 0 -11" transform="rotate(180,249.5,139.5)"/><rect x="244" y="156" width="11" height="11" transform="rotate(0,249.5,161.5)"/><path d="M 244 178v 11h 5.5a 5.5 5.5, 0, 0, 0, 0 -11" transform="rotate(0,249.5,183.5)"/><rect x="244" y="211" width="11" height="11" transform="rotate(0,249.5,216.5)"/><circle cx="249.5" cy="249.5" r="5.5" transform="rotate(0,249.5,249.5)"/><rect x="244" y="277" width="11" height="11" transform="rotate(0,249.5,282.5)"/><rect x="244" y="288" width="11" height="11" transform="rotate(0,249.5,293.5)"/><rect x="244" y="299" width="11" height="11" transform="rotate(0,249.5,304.5)"/><rect x="244" y="310" width="11" height="11" transform="rotate(0,249.5,315.5)"/><path d="M 244 321v 11h 11v -5.5a 5.5 5.5, 0, 0, 0, -5.5 -5.5" transform="rotate(90,249.5,326.5)"/><path d="M 244 343v 11h 11v -5.5a 5.5 5.5, 0, 0, 0, -5.5 -5.5" transform="rotate(-90,249.5,348.5)"/><rect x="244" y="354" width="11" height="11" transform="rotate(0,249.5,359.5)"/><path d="M 244 398v 11h 11v -5.5a 5.5 5.5, 0, 0, 0, -5.5 -5.5" transform="rotate(-90,249.5,403.5)"/><rect x="244" y="409" width="11" height="11" transform="rotate(0,249.5,414.5)"/><rect x="244" y="420" width="11" height="11" transform="rotate(0,249.5,425.5)"/><path d="M 244 442v 11h 5.5a 5.5 5.5, 0, 0, 0, 0 -11" transform="rotate(0,249.5,447.5)"/><path d="M 255 46v 11h 5.5a 5.5 5.5, 0, 0, 0, 0 -11" transform="rotate(-90,260.5,51.5)"/><path d="M 255 57v 11h 5.5a 5.5 5.5, 0, 0, 0, 0 -11" transform="rotate(90,260.5,62.5)"/><rect x="255" y="79" width="11" height="11" transform="rotate(0,260.5,84.5)"/><path d="M 255 101v 11h 5.5a 5.5 5.5, 0, 0, 0, 0 -11" transform="rotate(-90,260.5,106.5)"/><path d="M 255 112v 11h 11v -5.5a 5.5 5.5, 0, 0, 0, -5.5 -5.5" transform="rotate(180,260.5,117.5)"/><path d="M 255 134v 11h 11v -5.5a 5.5 5.5, 0, 0, 0, -5.5 -5.5" transform="rotate(0,260.5,139.5)"/><rect x="255" y="145" width="11" height="11" transform="rotate(0,260.5,150.5)"/><path d="M 255 156v 11h 11v -5.5a 5.5 5.5, 0, 0, 0, -5.5 -5.5" transform="rotate(90,260.5,161.5)"/><path d="M 255 211v 11h 11v -5.5a 5.5 5.5, 0, 0, 0, -5.5 -5.5" transform="rotate(0,260.5,216.5)"/><path d="M 255 222v 11h 11v -5.5a 5.5 5.5, 0, 0, 0, -5.5 -5.5" transform="rotate(180,260.5,227.5)"/><path d="M 255 266v 11h 5.5a 5.5 5.5, 0, 0, 0, 0 -11" transform="rotate(-90,260.5,271.5)"/><rect x="255" y="277" width="11" height="11" transform="rotate(0,260.5,282.5)"/><rect x="255" y="288" width="11" height="11" transform="rotate(0,260.5,293.5)"/><rect x="255" y="299" width="11" height="11" transform="rotate(0,260.5,304.5)"/><path d="M 255 310v 11h 11v -5.5a 5.5 5.5, 0, 0, 0, -5.5 -5.5" transform="rotate(90,260.5,315.5)"/><rect x="255" y="343" width="11" height="11" transform="rotate(0,260.5,348.5)"/><rect x="255" y="354" width="11" height="11" transform="rotate(0,260.5,359.5)"/><path d="M 255 365v 11h 5.5a 5.5 5.5, 0, 0, 0, 0 -11" transform="rotate(90,260.5,370.5)"/><path d="M 255 398v 11h 11v -5.5a 5.5 5.5, 0, 0, 0, -5.5 -5.5" transform="rotate(0,260.5,403.5)"/><rect x="255" y="409" width="11" height="11" transform="rotate(0,260.5,414.5)"/><path d="M 255 420v 11h 11v -5.5a 5.5 5.5, 0, 0, 0, -5.5 -5.5" transform="rotate(90,260.5,425.5)"/><path d="M 266 24v 11h 5.5a 5.5 5.5, 0, 0, 0, 0 -11" transform="rotate(180,271.5,29.5)"/><rect x="266" y="79" width="11" height="11" transform="rotate(0,271.5,84.5)"/><path d="M 266 90v 11h 5.5a 5.5 5.5, 0, 0, 0, 0 -11" transform="rotate(90,271.5,95.5)"/><path d="M 266 112v 11h 11v -5.5a 5.5 5.5, 0, 0, 0, -5.5 -5.5" transform="rotate(0,271.5,117.5)"/><path d="M 266 123v 11h 11v -5.5a 5.5 5.5, 0, 0, 0, -5.5 -5.5" transform="rotate(180,271.5,128.5)"/><rect x="266" y="145" width="11" height="11" transform="rotate(0,271.5,150.5)"/><path d="M 266 167v 11h 5.5a 5.5 5.5, 0, 0, 0, 0 -11" transform="rotate(-90,271.5,172.5)"/><path d="M 266 178v 11h 5.5a 5.5 5.5, 0, 0, 0, 0 -11" transform="rotate(90,271.5,183.5)"/><path d="M 266 222v 11h 11v -5.5a 5.5 5.5, 0, 0, 0, -5.5 -5.5" transform="rotate(0,271.5,227.5)"/><path d="M 266 233v 11h 5.5a 5.5 5.5, 0, 0, 0, 0 -11" transform="rotate(90,271.5,238.5)"/><path d="M 266 277v 11h 5.5a 5.5 5.5, 0, 0, 0, 0 -11" transform="rotate(0,271.5,282.5)"/><path d="M 266 299v 11h 5.5a 5.5 5.5, 0, 0, 0, 0 -11" transform="rotate(0,271.5,304.5)"/><path d="M 266 321v 11h 11v -5.5a 5.5 5.5, 0, 0, 0, -5.5 -5.5" transform="rotate(-90,271.5,326.5)"/><rect x="266" y="332" width="11" height="11" transform="rotate(0,271.5,337.5)"/><rect x="266" y="343" width="11" height="11" transform="rotate(0,271.5,348.5)"/><path d="M 266 354v 11h 11v -5.5a 5.5 5.5, 0, 0, 0, -5.5 -5.5" transform="rotate(90,271.5,359.5)"/><circle cx="271.5" cy="392.5" r="5.5" transform="rotate(0,271.5,392.5)"/><path d="M 266 431v 11h 11v -5.5a 5.5 5.5, 0, 0, 0, -5.5 -5.5" transform="rotate(-90,271.5,436.5)"/><path d="M 266 442v 11h 5.5a 5.5 5.5, 0, 0, 0, 0 -11" transform="rotate(90,271.5,447.5)"/><rect x="277" y="24" width="11" height="11" transform="rotate(0,282.5,29.5)"/><rect x="277" y="35" width="11" height="11" transform="rotate(0,282.5,40.5)"/><path d="M 277 46v 11h 5.5a 5.5 5.5, 0, 0, 0, 0 -11" transform="rotate(90,282.5,51.5)"/><rect x="277" y="79" width="11" height="11" transform="rotate(0,282.5,84.5)"/><circle cx="282.5" cy="106.5" r="5.5" transform="rotate(0,282.5,106.5)"/><path d="M 277 123v 11h 11v -5.5a 5.5 5.5, 0, 0, 0, -5.5 -5.5" transform="rotate(0,282.5,128.5)"/><rect x="277" y="134" width="11" height="11" transform="rotate(0,282.5,139.5)"/><rect x="277" y="145" width="11" height="11" transform="rotate(0,282.5,150.5)"/><path d="M 277 156v 11h 5.5a 5.5 5.5, 0, 0, 0, 0 -11" transform="rotate(90,282.5,161.5)"/><circle cx="282.5" cy="216.5" r="5.5" transform="rotate(0,282.5,216.5)"/><path d="M 277 255v 11h 5.5a 5.5 5.5, 0, 0, 0, 0 -11" transform="rotate(-90,282.5,260.5)"/><path d="M 277 266v 11h 11v -5.5a 5.5 5.5, 0, 0, 0, -5.5 -5.5" transform="rotate(180,282.5,271.5)"/><path d="M 277 288v 11h 5.5a 5.5 5.5, 0, 0, 0, 0 -11" transform="rotate(180,282.5,293.5)"/><path d="M 277 321v 11h 5.5a 5.5 5.5, 0, 0, 0, 0 -11" transform="rotate(0,282.5,326.5)"/><path d="M 277 343v 11h 5.5a 5.5 5.5, 0, 0, 0, 0 -11" transform="rotate(0,282.5,348.5)"/><path d="M 277 376v 11h 5.5a 5.5 5.5, 0, 0, 0, 0 -11" transform="rotate(180,282.5,381.5)"/><path d="M 277 431v 11h 5.5a 5.5 5.5, 0, 0, 0, 0 -11" transform="rotate(0,282.5,436.5)"/><path d="M 288 24v 11h 11v -5.5a 5.5 5.5, 0, 0, 0, -5.5 -5.5" transform="rotate(0,293.5,29.5)"/><rect x="288" y="35" width="11" height="11" transform="rotate(0,293.5,40.5)"/><path d="M 288 68v 11h 5.5a 5.5 5.5, 0, 0, 0, 0 -11" transform="rotate(-90,293.5,73.5)"/><rect x="288" y="79" width="11" height="11" transform="rotate(0,293.5,84.5)"/><path d="M 288 90v 11h 5.5a 5.5 5.5, 0, 0, 0, 0 -11" transform="rotate(90,293.5,95.5)"/><path d="M 288 134v 11h 5.5a 5.5 5.5, 0, 0, 0, 0 -11" transform="rotate(0,293.5,139.5)"/><path d="M 288 178v 11h 5.5a 5.5 5.5, 0, 0, 0, 0 -11" transform="rotate(180,293.5,183.5)"/><circle cx="293.5" cy="205.5" r="5.5" transform="rotate(0,293.5,205.5)"/><path d="M 288 222v 11h 11v -5.5a 5.5 5.5, 0, 0, 0, -5.5 -5.5" transform="rotate(-90,293.5,227.5)"/><path d="M 288 233v 11h 11v -5.5a 5.5 5.5, 0, 0, 0, -5.5 -5.5" transform="rotate(180,293.5,238.5)"/><path d="M 288 266v 11h 11v -5.5a 5.5 5.5, 0, 0, 0, -5.5 -5.5" transform="rotate(0,293.5,271.5)"/><rect x="288" y="277" width="11" height="11" transform="rotate(0,293.5,282.5)"/><path d="M 288 288v 11h 11v -5.5a 5.5 5.5, 0, 0, 0, -5.5 -5.5" transform="rotate(90,293.5,293.5)"/><path d="M 288 365v 11h 5.5a 5.5 5.5, 0, 0, 0, 0 -11" transform="rotate(-90,293.5,370.5)"/><rect x="288" y="376" width="11" height="11" transform="rotate(0,293.5,381.5)"/><path d="M 288 398v 11h 11v -5.5a 5.5 5.5, 0, 0, 0, -5.5 -5.5" transform="rotate(-90,293.5,403.5)"/><path d="M 288 409v 11h 11v -5.5a 5.5 5.5, 0, 0, 0, -5.5 -5.5" transform="rotate(180,293.5,414.5)"/><path d="M 288 442v 11h 5.5a 5.5 5.5, 0, 0, 0, 0 -11" transform="rotate(180,293.5,447.5)"/><circle cx="293.5" cy="469.5" r="5.5" transform="rotate(0,293.5,469.5)"/><rect x="299" y="35" width="11" height="11" transform="rotate(0,304.5,40.5)"/><path d="M 299 57v 11h 5.5a 5.5 5.5, 0, 0, 0, 0 -11" transform="rotate(180,304.5,62.5)"/><path d="M 299 79v 11h 5.5a 5.5 5.5, 0, 0, 0, 0 -11" transform="rotate(0,304.5,84.5)"/><circle cx="304.5" cy="128.5" r="5.5" transform="rotate(0,304.5,128.5)"/><path d="M 299 145v 11h 11v -5.5a 5.5 5.5, 0, 0, 0, -5.5 -5.5" transform="rotate(-90,304.5,150.5)"/><rect x="299" y="156" width="11" height="11" transform="rotate(0,304.5,161.5)"/><rect x="299" y="167" width="11" height="11" transform="rotate(0,304.5,172.5)"/><rect x="299" y="178" width="11" height="11" transform="rotate(0,304.5,183.5)"/><path d="M 299 189v 11h 5.5a 5.5 5.5, 0, 0, 0, 0 -11" transform="rotate(90,304.5,194.5)"/><path d="M 299 211v 11h 11v -5.5a 5.5 5.5, 0, 0, 0, -5.5 -5.5" transform="rotate(-90,304.5,216.5)"/><rect x="299" y="222" width="11" height="11" transform="rotate(0,304.5,227.5)"/><rect x="299" y="233" width="11" height="11" transform="rotate(0,304.5,238.5)"/><path d="M 299 255v 11h 5.5a 5.5 5.5, 0, 0, 0, 0 -11" transform="rotate(180,304.5,260.5)"/><path d="M 299 277v 11h 5.5a 5.5 5.5, 0, 0, 0, 0 -11" transform="rotate(0,304.5,282.5)"/><path d="M 299 299v 11h 5.5a 5.5 5.5, 0, 0, 0, 0 -11" transform="rotate(-90,304.5,304.5)"/><rect x="299" y="310" width="11" height="11" transform="rotate(0,304.5,315.5)"/><rect x="299" y="321" width="11" height="11" transform="rotate(0,304.5,326.5)"/><path d="M 299 332v 11h 11v -5.5a 5.5 5.5, 0, 0, 0, -5.5 -5.5" transform="rotate(180,304.5,337.5)"/><rect x="299" y="376" width="11" height="11" transform="rotate(0,304.5,381.5)"/><path d="M 299 398v 11h 11v -5.5a 5.5 5.5, 0, 0, 0, -5.5 -5.5" transform="rotate(0,304.5,403.5)"/><rect x="299" y="409" width="11" height="11" transform="rotate(0,304.5,414.5)"/><path d="M 299 420v 11h 11v -5.5a 5.5 5.5, 0, 0, 0, -5.5 -5.5" transform="rotate(180,304.5,425.5)"/><path d="M 299 442v 11h 11v -5.5a 5.5 5.5, 0, 0, 0, -5.5 -5.5" transform="rotate(0,304.5,447.5)"/><path d="M 299 453v 11h 5.5a 5.5 5.5, 0, 0, 0, 0 -11" transform="rotate(90,304.5,458.5)"/><path d="M 310 24v 11h 11v -5.5a 5.5 5.5, 0, 0, 0, -5.5 -5.5" transform="rotate(-90,315.5,29.5)"/><rect x="310" y="35" width="11" height="11" transform="rotate(0,315.5,40.5)"/><rect x="310" y="57" width="11" height="11" transform="rotate(0,315.5,62.5)"/><path d="M 310 68v 11h 11v -5.5a 5.5 5.5, 0, 0, 0, -5.5 -5.5" transform="rotate(180,315.5,73.5)"/><path d="M 310 90v 11h 5.5a 5.5 5.5, 0, 0, 0, 0 -11" transform="rotate(-90,315.5,95.5)"/><path d="M 310 101v 11h 11v -5.5a 5.5 5.5, 0, 0, 0, -5.5 -5.5" transform="rotate(180,315.5,106.5)"/><path d="M 310 134v 11h 5.5a 5.5 5.5, 0, 0, 0, 0 -11" transform="rotate(-90,315.5,139.5)"/><rect x="310" y="145" width="11" height="11" transform="rotate(0,315.5,150.5)"/><rect x="310" y="156" width="11" height="11" transform="rotate(0,315.5,161.5)"/><path d="M 310 167v 11h 11v -5.5a 5.5 5.5, 0, 0, 0, -5.5 -5.5" transform="rotate(90,315.5,172.5)"/><path d="M 310 200v 11h 11v -5.5a 5.5 5.5, 0, 0, 0, -5.5 -5.5" transform="rotate(-90,315.5,205.5)"/><rect x="310" y="211" width="11" height="11" transform="rotate(0,315.5,216.5)"/><rect x="310" y="222" width="11" height="11" transform="rotate(0,315.5,227.5)"/><rect x="310" y="233" width="11" height="11" transform="rotate(0,315.5,238.5)"/><rect x="310" y="244" width="11" height="11" transform="rotate(0,315.5,249.5)"/><rect x="310" y="255" width="11" height="11" transform="rotate(0,315.5,260.5)"/><path d="M 310 266v 11h 11v -5.5a 5.5 5.5, 0, 0, 0, -5.5 -5.5" transform="rotate(180,315.5,271.5)"/><path d="M 310 321v 11h 11v -5.5a 5.5 5.5, 0, 0, 0, -5.5 -5.5" transform="rotate(0,315.5,326.5)"/><rect x="310" y="332" width="11" height="11" transform="rotate(0,315.5,337.5)"/><path d="M 310 365v 11h 11v -5.5a 5.5 5.5, 0, 0, 0, -5.5 -5.5" transform="rotate(-90,315.5,370.5)"/><path d="M 310 376v 11h 11v -5.5a 5.5 5.5, 0, 0, 0, -5.5 -5.5" transform="rotate(90,315.5,381.5)"/><rect x="310" y="409" width="11" height="11" transform="rotate(0,315.5,414.5)"/><rect x="310" y="420" width="11" height="11" transform="rotate(0,315.5,425.5)"/><path d="M 310 431v 11h 11v -5.5a 5.5 5.5, 0, 0, 0, -5.5 -5.5" transform="rotate(180,315.5,436.5)"/><circle cx="315.5" cy="469.5" r="5.5" transform="rotate(0,315.5,469.5)"/><path d="M 321 24v 11h 11v -5.5a 5.5 5.5, 0, 0, 0, -5.5 -5.5" transform="rotate(0,326.5,29.5)"/><rect x="321" y="35" width="11" height="11" transform="rotate(0,326.5,40.5)"/><path d="M 321 57v 11h 11v -5.5a 5.5 5.5, 0, 0, 0, -5.5 -5.5" transform="rotate(0,326.5,62.5)"/><rect x="321" y="68" width="11" height="11" transform="rotate(0,326.5,73.5)"/><rect x="321" y="101" width="11" height="11" transform="rotate(0,326.5,106.5)"/><path d="M 321 145v 11h 5.5a 5.5 5.5, 0, 0, 0, 0 -11" transform="rotate(0,326.5,150.5)"/><path d="M 321 178v 11h 11v -5.5a 5.5 5.5, 0, 0, 0, -5.5 -5.5" transform="rotate(-90,326.5,183.5)"/><rect x="321" y="189" width="11" height="11" transform="rotate(0,326.5,194.5)"/><rect x="321" y="200" width="11" height="11" transform="rotate(0,326.5,205.5)"/><rect x="321" y="211" width="11" height="11" transform="rotate(0,326.5,216.5)"/><rect x="321" y="222" width="11" height="11" transform="rotate(0,326.5,227.5)"/><path d="M 321 233v 11h 11v -5.5a 5.5 5.5, 0, 0, 0, -5.5 -5.5" transform="rotate(90,326.5,238.5)"/><path d="M 321 255v 11h 11v -5.5a 5.5 5.5, 0, 0, 0, -5.5 -5.5" transform="rotate(0,326.5,260.5)"/><rect x="321" y="266" width="11" height="11" transform="rotate(0,326.5,271.5)"/><path d="M 321 277v 11h 5.5a 5.5 5.5, 0, 0, 0, 0 -11" transform="rotate(90,326.5,282.5)"/><path d="M 321 332v 11h 5.5a 5.5 5.5, 0, 0, 0, 0 -11" transform="rotate(0,326.5,337.5)"/><path d="M 321 354v 11h 5.5a 5.5 5.5, 0, 0, 0, 0 -11" transform="rotate(-90,326.5,359.5)"/><rect x="321" y="365" width="11" height="11" transform="rotate(0,326.5,370.5)"/><circle cx="326.5" cy="392.5" r="5.5" transform="rotate(0,326.5,392.5)"/><rect x="321" y="409" width="11" height="11" transform="rotate(0,326.5,414.5)"/><rect x="321" y="420" width="11" height="11" transform="rotate(0,326.5,425.5)"/><rect x="321" y="431" width="11" height="11" transform="rotate(0,326.5,436.5)"/><rect x="321" y="442" width="11" height="11" transform="rotate(0,326.5,447.5)"/><path d="M 321 453v 11h 5.5a 5.5 5.5, 0, 0, 0, 0 -11" transform="rotate(90,326.5,458.5)"/><rect x="332" y="35" width="11" height="11" transform="rotate(0,337.5,40.5)"/><rect x="332" y="68" width="11" height="11" transform="rotate(0,337.5,73.5)"/><rect x="332" y="79" width="11" height="11" transform="rotate(0,337.5,84.5)"/><rect x="332" y="90" width="11" height="11" transform="rotate(0,337.5,95.5)"/><rect x="332" y="101" width="11" height="11" transform="rotate(0,337.5,106.5)"/><rect x="332" y="112" width="11" height="11" transform="rotate(0,337.5,117.5)"/><rect x="332" y="123" width="11" height="11" transform="rotate(0,337.5,128.5)"/><path d="M 332 134v 11h 5.5a 5.5 5.5, 0, 0, 0, 0 -11" transform="rotate(90,337.5,139.5)"/><circle cx="337.5" cy="161.5" r="5.5" transform="rotate(0,337.5,161.5)"/><path d="M 332 178v 11h 11v -5.5a 5.5 5.5, 0, 0, 0, -5.5 -5.5" transform="rotate(0,337.5,183.5)"/><rect x="332" y="189" width="11" height="11" transform="rotate(0,337.5,194.5)"/><rect x="332" y="200" width="11" height="11" transform="rotate(0,337.5,205.5)"/><path d="M 332 244v 11h 5.5a 5.5 5.5, 0, 0, 0, 0 -11" transform="rotate(180,337.5,249.5)"/><circle cx="337.5" cy="293.5" r="5.5" transform="rotate(0,337.5,293.5)"/><rect x="332" y="365" width="11" height="11" transform="rotate(0,337.5,370.5)"/><path d="M 332 409v 11h 5.5a 5.5 5.5, 0, 0, 0, 0 -11" transform="rotate(0,337.5,414.5)"/><path d="M 332 431v 11h 5.5a 5.5 5.5, 0, 0, 0, 0 -11" transform="rotate(0,337.5,436.5)"/><path d="M 332 464v 11h 5.5a 5.5 5.5, 0, 0, 0, 0 -11" transform="rotate(180,337.5,469.5)"/><path d="M 343 24v 11h 11v -5.5a 5.5 5.5, 0, 0, 0, -5.5 -5.5" transform="rotate(-90,348.5,29.5)"/><rect x="343" y="35" width="11" height="11" transform="rotate(0,348.5,40.5)"/><path d="M 343 57v 11h 11v -5.5a 5.5 5.5, 0, 0, 0, -5.5 -5.5" transform="rotate(-90,348.5,62.5)"/><path d="M 343 68v 11h 11v -5.5a 5.5 5.5, 0, 0, 0, -5.5 -5.5" transform="rotate(90,348.5,73.5)"/><rect x="343" y="112" width="11" height="11" transform="rotate(0,348.5,117.5)"/><circle cx="348.5" cy="172.5" r="5.5" transform="rotate(0,348.5,172.5)"/><rect x="343" y="189" width="11" height="11" transform="rotate(0,348.5,194.5)"/><rect x="343" y="200" width="11" height="11" transform="rotate(0,348.5,205.5)"/><path d="M 343 211v 11h 11v -5.5a 5.5 5.5, 0, 0, 0, -5.5 -5.5" transform="rotate(180,348.5,216.5)"/><rect x="343" y="244" width="11" height="11" transform="rotate(0,348.5,249.5)"/><circle cx="348.5" cy="282.5" r="5.5" transform="rotate(0,348.5,282.5)"/><path d="M 343 321v 11h 5.5a 5.5 5.5, 0, 0, 0, 0 -11" transform="rotate(180,348.5,326.5)"/><path d="M 343 354v 11h 5.5a 5.5 5.5, 0, 0, 0, 0 -11" transform="rotate(-90,348.5,359.5)"/><rect x="343" y="365" width="11" height="11" transform="rotate(0,348.5,370.5)"/><rect x="343" y="376" width="11" height="11" transform="rotate(0,348.5,381.5)"/><path d="M 343 387v 11h 11v -5.5a 5.5 5.5, 0, 0, 0, -5.5 -5.5" transform="rotate(180,348.5,392.5)"/><path d="M 343 420v 11h 5.5a 5.5 5.5, 0, 0, 0, 0 -11" transform="rotate(180,348.5,425.5)"/><path d="M 343 442v 11h 11v -5.5a 5.5 5.5, 0, 0, 0, -5.5 -5.5" transform="rotate(-90,348.5,447.5)"/><rect x="343" y="453" width="11" height="11" transform="rotate(0,348.5,458.5)"/><rect x="343" y="464" width="11" height="11" transform="rotate(0,348.5,469.5)"/><rect x="354" y="24" width="11" height="11" transform="rotate(0,359.5,29.5)"/><rect x="354" y="35" width="11" height="11" transform="rotate(0,359.5,40.5)"/><rect x="354" y="57" width="11" height="11" transform="rotate(0,359.5,62.5)"/><path d="M 354 90v 11h 5.5a 5.5 5.5, 0, 0, 0, 0 -11" transform="rotate(-90,359.5,95.5)"/><rect x="354" y="101" width="11" height="11" transform="rotate(0,359.5,106.5)"/><rect x="354" y="112" width="11" height="11" transform="rotate(0,359.5,117.5)"/><path d="M 354 134v 11h 5.5a 5.5 5.5, 0, 0, 0, 0 -11" transform="rotate(-90,359.5,139.5)"/><rect x="354" y="145" width="11" height="11" transform="rotate(0,359.5,150.5)"/><path d="M 354 156v 11h 5.5a 5.5 5.5, 0, 0, 0, 0 -11" transform="rotate(90,359.5,161.5)"/><path d="M 354 189v 11h 11v -5.5a 5.5 5.5, 0, 0, 0, -5.5 -5.5" transform="rotate(0,359.5,194.5)"/><rect x="354" y="200" width="11" height="11" transform="rotate(0,359.5,205.5)"/><rect x="354" y="211" width="11" height="11" transform="rotate(0,359.5,216.5)"/><path d="M 354 233v 11h 11v -5.5a 5.5 5.5, 0, 0, 0, -5.5 -5.5" transform="rotate(-90,359.5,238.5)"/><rect x="354" y="244" width="11" height="11" transform="rotate(0,359.5,249.5)"/><rect x="354" y="255" width="11" height="11" transform="rotate(0,359.5,260.5)"/><path d="M 354 266v 11h 5.5a 5.5 5.5, 0, 0, 0, 0 -11" transform="rotate(90,359.5,271.5)"/><path d="M 354 288v 11h 5.5a 5.5 5.5, 0, 0, 0, 0 -11" transform="rotate(-90,359.5,293.5)"/><rect x="354" y="299" width="11" height="11" transform="rotate(0,359.5,304.5)"/><rect x="354" y="310" width="11" height="11" transform="rotate(0,359.5,315.5)"/><rect x="354" y="321" width="11" height="11" transform="rotate(0,359.5,326.5)"/><rect x="354" y="332" width="11" height="11" transform="rotate(0,359.5,337.5)"/><path d="M 354 343v 11h 5.5a 5.5 5.5, 0, 0, 0, 0 -11" transform="rotate(90,359.5,348.5)"/><path d="M 354 365v 11h 5.5a 5.5 5.5, 0, 0, 0, 0 -11" transform="rotate(0,359.5,370.5)"/><path d="M 354 387v 11h 5.5a 5.5 5.5, 0, 0, 0, 0 -11" transform="rotate(0,359.5,392.5)"/><path d="M 354 420v 11h 11v -5.5a 5.5 5.5, 0, 0, 0, -5.5 -5.5" transform="rotate(0,359.5,425.5)"/><rect x="354" y="431" width="11" height="11" transform="rotate(0,359.5,436.5)"/><rect x="354" y="442" width="11" height="11" transform="rotate(0,359.5,447.5)"/><path d="M 354 464v 11h 5.5a 5.5 5.5, 0, 0, 0, 0 -11" transform="rotate(0,359.5,469.5)"/><rect x="365" y="24" width="11" height="11" transform="rotate(0,370.5,29.5)"/><rect x="365" y="35" width="11" height="11" transform="rotate(0,370.5,40.5)"/><rect x="365" y="46" width="11" height="11" transform="rotate(0,370.5,51.5)"/><rect x="365" y="57" width="11" height="11" transform="rotate(0,370.5,62.5)"/><rect x="365" y="68" width="11" height="11" transform="rotate(0,370.5,73.5)"/><path d="M 365 79v 11h 11v -5.5a 5.5 5.5, 0, 0, 0, -5.5 -5.5" transform="rotate(180,370.5,84.5)"/><path d="M 365 101v 11h 11v -5.5a 5.5 5.5, 0, 0, 0, -5.5 -5.5" transform="rotate(0,370.5,106.5)"/><path d="M 365 112v 11h 11v -5.5a 5.5 5.5, 0, 0, 0, -5.5 -5.5" transform="rotate(90,370.5,117.5)"/><rect x="365" y="211" width="11" height="11" transform="rotate(0,370.5,216.5)"/><rect x="365" y="222" width="11" height="11" transform="rotate(0,370.5,227.5)"/><rect x="365" y="233" width="11" height="11" transform="rotate(0,370.5,238.5)"/><rect x="365" y="255" width="11" height="11" transform="rotate(0,370.5,260.5)"/><path d="M 365 277v 11h 5.5a 5.5 5.5, 0, 0, 0, 0 -11" transform="rotate(180,370.5,282.5)"/><path d="M 365 299v 11h 5.5a 5.5 5.5, 0, 0, 0, 0 -11" transform="rotate(0,370.5,304.5)"/><circle cx="370.5" cy="359.5" r="5.5" transform="rotate(0,370.5,359.5)"/><path d="M 365 376v 11h 5.5a 5.5 5.5, 0, 0, 0, 0 -11" transform="rotate(180,370.5,381.5)"/><path d="M 365 398v 11h 11v -5.5a 5.5 5.5, 0, 0, 0, -5.5 -5.5" transform="rotate(-90,370.5,403.5)"/><path d="M 365 409v 11h 11v -5.5a 5.5 5.5, 0, 0, 0, -5.5 -5.5" transform="rotate(180,370.5,414.5)"/><rect x="365" y="442" width="11" height="11" transform="rotate(0,370.5,447.5)"/><path d="M 365 453v 11h 5.5a 5.5 5.5, 0, 0, 0, 0 -11" transform="rotate(90,370.5,458.5)"/><path d="M 376 24v 11h 11v -5.5a 5.5 5.5, 0, 0, 0, -5.5 -5.5" transform="rotate(0,381.5,29.5)"/><path d="M 376 35v 11h 11v -5.5a 5.5 5.5, 0, 0, 0, -5.5 -5.5" transform="rotate(90,381.5,40.5)"/><path d="M 376 57v 11h 5.5a 5.5 5.5, 0, 0, 0, 0 -11" transform="rotate(0,381.5,62.5)"/><path d="M 376 79v 11h 11v -5.5a 5.5 5.5, 0, 0, 0, -5.5 -5.5" transform="rotate(0,381.5,84.5)"/><path d="M 376 90v 11h 5.5a 5.5 5.5, 0, 0, 0, 0 -11" transform="rotate(90,381.5,95.5)"/><path d="M 376 134v 11h 11v -5.5a 5.5 5.5, 0, 0, 0, -5.5 -5.5" transform="rotate(-90,381.5,139.5)"/><path d="M 376 145v 11h 5.5a 5.5 5.5, 0, 0, 0, 0 -11" transform="rotate(90,381.5,150.5)"/><path d="M 376 178v 11h 5.5a 5.5 5.5, 0, 0, 0, 0 -11" transform="rotate(180,381.5,183.5)"/><path d="M 376 200v 11h 5.5a 5.5 5.5, 0, 0, 0, 0 -11" transform="rotate(-90,381.5,205.5)"/><rect x="376" y="211" width="11" height="11" transform="rotate(0,381.5,216.5)"/><rect x="376" y="222" width="11" height="11" transform="rotate(0,381.5,227.5)"/><rect x="376" y="233" width="11" height="11" transform="rotate(0,381.5,238.5)"/><rect x="376" y="244" width="11" height="11" transform="rotate(0,381.5,249.5)"/><rect x="376" y="255" width="11" height="11" transform="rotate(0,381.5,260.5)"/><rect x="376" y="266" width="11" height="11" transform="rotate(0,381.5,271.5)"/><rect x="376" y="277" width="11" height="11" transform="rotate(0,381.5,282.5)"/><path d="M 376 288v 11h 5.5a 5.5 5.5, 0, 0, 0, 0 -11" transform="rotate(90,381.5,293.5)"/><path d="M 376 310v 11h 11v -5.5a 5.5 5.5, 0, 0, 0, -5.5 -5.5" transform="rotate(-90,381.5,315.5)"/><rect x="376" y="321" width="11" height="11" transform="rotate(0,381.5,326.5)"/><rect x="376" y="332" width="11" height="11" transform="rotate(0,381.5,337.5)"/><path d="M 376 343v 11h 11v -5.5a 5.5 5.5, 0, 0, 0, -5.5 -5.5" transform="rotate(180,381.5,348.5)"/><path d="M 376 365v 11h 5.5a 5.5 5.5, 0, 0, 0, 0 -11" transform="rotate(-90,381.5,370.5)"/><rect x="376" y="376" width="11" height="11" transform="rotate(0,381.5,381.5)"/><rect x="376" y="387" width="11" height="11" transform="rotate(0,381.5,392.5)"/><rect x="376" y="398" width="11" height="11" transform="rotate(0,381.5,403.5)"/><rect x="376" y="409" width="11" height="11" transform="rotate(0,381.5,414.5)"/><rect x="376" y="420" width="11" height="11" transform="rotate(0,381.5,425.5)"/><rect x="376" y="431" width="11" height="11" transform="rotate(0,381.5,436.5)"/><rect x="376" y="442" width="11" height="11" transform="rotate(0,381.5,447.5)"/><circle cx="392.5" cy="117.5" r="5.5" transform="rotate(0,392.5,117.5)"/><rect x="387" y="134" width="11" height="11" transform="rotate(0,392.5,139.5)"/><rect x="387" y="178" width="11" height="11" transform="rotate(0,392.5,183.5)"/><path d="M 387 189v 11h 5.5a 5.5 5.5, 0, 0, 0, 0 -11" transform="rotate(90,392.5,194.5)"/><rect x="387" y="222" width="11" height="11" transform="rotate(0,392.5,227.5)"/><rect x="387" y="244" width="11" height="11" transform="rotate(0,392.5,249.5)"/><rect x="387" y="255" width="11" height="11" transform="rotate(0,392.5,260.5)"/><rect x="387" y="277" width="11" height="11" transform="rotate(0,392.5,282.5)"/><rect x="387" y="310" width="11" height="11" transform="rotate(0,392.5,315.5)"/><rect x="387" y="321" width="11" height="11" transform="rotate(0,392.5,326.5)"/><path d="M 387 343v 11h 11v -5.5a 5.5 5.5, 0, 0, 0, -5.5 -5.5" transform="rotate(0,392.5,348.5)"/><path d="M 387 354v 11h 5.5a 5.5 5.5, 0, 0, 0, 0 -11" transform="rotate(90,392.5,359.5)"/><rect x="387" y="376" width="11" height="11" transform="rotate(0,392.5,381.5)"/><rect x="387" y="420" width="11" height="11" transform="rotate(0,392.5,425.5)"/><path d="M 387 442v 11h 5.5a 5.5 5.5, 0, 0, 0, 0 -11" transform="rotate(0,392.5,447.5)"/><rect x="398" y="134" width="11" height="11" transform="rotate(0,403.5,139.5)"/><rect x="398" y="145" width="11" height="11" transform="rotate(0,403.5,150.5)"/><rect x="398" y="156" width="11" height="11" transform="rotate(0,403.5,161.5)"/><rect x="398" y="167" width="11" height="11" transform="rotate(0,403.5,172.5)"/><rect x="398" y="178" width="11" height="11" transform="rotate(0,403.5,183.5)"/><circle cx="403.5" cy="205.5" r="5.5" transform="rotate(0,403.5,205.5)"/><rect x="398" y="222" width="11" height="11" transform="rotate(0,403.5,227.5)"/><rect x="398" y="233" width="11" height="11" transform="rotate(0,403.5,238.5)"/><rect x="398" y="244" width="11" height="11" transform="rotate(0,403.5,249.5)"/><rect x="398" y="255" width="11" height="11" transform="rotate(0,403.5,260.5)"/><rect x="398" y="277" width="11" height="11" transform="rotate(0,403.5,282.5)"/><rect x="398" y="310" width="11" height="11" transform="rotate(0,403.5,315.5)"/><rect x="398" y="321" width="11" height="11" transform="rotate(0,403.5,326.5)"/><path d="M 398 332v 11h 5.5a 5.5 5.5, 0, 0, 0, 0 -11" transform="rotate(90,403.5,337.5)"/><path d="M 398 365v 11h 11v -5.5a 5.5 5.5, 0, 0, 0, -5.5 -5.5" transform="rotate(-90,403.5,370.5)"/><rect x="398" y="376" width="11" height="11" transform="rotate(0,403.5,381.5)"/><circle cx="403.5" cy="403.5" r="5.5" transform="rotate(0,403.5,403.5)"/><rect x="398" y="420" width="11" height="11" transform="rotate(0,403.5,425.5)"/><path d="M 398 431v 11h 11v -5.5a 5.5 5.5, 0, 0, 0, -5.5 -5.5" transform="rotate(180,403.5,436.5)"/><path d="M 398 453v 11h 5.5a 5.5 5.5, 0, 0, 0, 0 -11" transform="rotate(180,403.5,458.5)"/><path d="M 409 112v 11h 5.5a 5.5 5.5, 0, 0, 0, 0 -11" transform="rotate(180,414.5,117.5)"/><path d="M 409 134v 11h 5.5a 5.5 5.5, 0, 0, 0, 0 -11" transform="rotate(0,414.5,139.5)"/><path d="M 409 178v 11h 5.5a 5.5 5.5, 0, 0, 0, 0 -11" transform="rotate(0,414.5,183.5)"/><path d="M 409 211v 11h 5.5a 5.5 5.5, 0, 0, 0, 0 -11" transform="rotate(-90,414.5,216.5)"/><rect x="409" y="222" width="11" height="11" transform="rotate(0,414.5,227.5)"/><rect x="409" y="255" width="11" height="11" transform="rotate(0,414.5,260.5)"/><path d="M 409 277v 11h 11v -5.5a 5.5 5.5, 0, 0, 0, -5.5 -5.5" transform="rotate(0,414.5,282.5)"/><path d="M 409 288v 11h 5.5a 5.5 5.5, 0, 0, 0, 0 -11" transform="rotate(90,414.5,293.5)"/><rect x="409" y="310" width="11" height="11" transform="rotate(0,414.5,315.5)"/><path d="M 409 321v 11h 11v -5.5a 5.5 5.5, 0, 0, 0, -5.5 -5.5" transform="rotate(90,414.5,326.5)"/><path d="M 409 343v 11h 5.5a 5.5 5.5, 0, 0, 0, 0 -11" transform="rotate(-90,414.5,348.5)"/><rect x="409" y="354" width="11" height="11" transform="rotate(0,414.5,359.5)"/><rect x="409" y="365" width="11" height="11" transform="rotate(0,414.5,370.5)"/><rect x="409" y="376" width="11" height="11" transform="rotate(0,414.5,381.5)"/><rect x="409" y="420" width="11" height="11" transform="rotate(0,414.5,425.5)"/><rect x="409" y="431" width="11" height="11" transform="rotate(0,414.5,436.5)"/><path d="M 409 453v 11h 11v -5.5a 5.5 5.5, 0, 0, 0, -5.5 -5.5" transform="rotate(0,414.5,458.5)"/><path d="M 409 464v 11h 5.5a 5.5 5.5, 0, 0, 0, 0 -11" transform="rotate(90,414.5,469.5)"/><rect x="420" y="112" width="11" height="11" transform="rotate(0,425.5,117.5)"/><path d="M 420 145v 11h 5.5a 5.5 5.5, 0, 0, 0, 0 -11" transform="rotate(180,425.5,150.5)"/><path d="M 420 189v 11h 5.5a 5.5 5.5, 0, 0, 0, 0 -11" transform="rotate(180,425.5,194.5)"/><rect x="420" y="222" width="11" height="11" transform="rotate(0,425.5,227.5)"/><path d="M 420 233v 11h 11v -5.5a 5.5 5.5, 0, 0, 0, -5.5 -5.5" transform="rotate(180,425.5,238.5)"/><path d="M 420 255v 11h 11v -5.5a 5.5 5.5, 0, 0, 0, -5.5 -5.5" transform="rotate(0,425.5,260.5)"/><path d="M 420 266v 11h 11v -5.5a 5.5 5.5, 0, 0, 0, -5.5 -5.5" transform="rotate(180,425.5,271.5)"/><path d="M 420 299v 11h 11v -5.5a 5.5 5.5, 0, 0, 0, -5.5 -5.5" transform="rotate(-90,425.5,304.5)"/><path d="M 420 310v 11h 11v -5.5a 5.5 5.5, 0, 0, 0, -5.5 -5.5" transform="rotate(90,425.5,315.5)"/><circle cx="425.5" cy="337.5" r="5.5" transform="rotate(0,425.5,337.5)"/><path d="M 420 365v 11h 11v -5.5a 5.5 5.5, 0, 0, 0, -5.5 -5.5" transform="rotate(0,425.5,370.5)"/><rect x="420" y="376" width="11" height="11" transform="rotate(0,425.5,381.5)"/><rect x="420" y="387" width="11" height="11" transform="rotate(0,425.5,392.5)"/><rect x="420" y="398" width="11" height="11" transform="rotate(0,425.5,403.5)"/><rect x="420" y="409" width="11" height="11" transform="rotate(0,425.5,414.5)"/><rect x="420" y="420" width="11" height="11" transform="rotate(0,425.5,425.5)"/><rect x="420" y="431" width="11" height="11" transform="rotate(0,425.5,436.5)"/><path d="M 431 112v 11h 11v -5.5a 5.5 5.5, 0, 0, 0, -5.5 -5.5" transform="rotate(0,436.5,117.5)"/><rect x="431" y="123" width="11" height="11" transform="rotate(0,436.5,128.5)"/><rect x="431" y="134" width="11" height="11" transform="rotate(0,436.5,139.5)"/><path d="M 431 145v 11h 11v -5.5a 5.5 5.5, 0, 0, 0, -5.5 -5.5" transform="rotate(90,436.5,150.5)"/><path d="M 431 189v 11h 11v -5.5a 5.5 5.5, 0, 0, 0, -5.5 -5.5" transform="rotate(0,436.5,194.5)"/><rect x="431" y="200" width="11" height="11" transform="rotate(0,436.5,205.5)"/><rect x="431" y="211" width="11" height="11" transform="rotate(0,436.5,216.5)"/><rect x="431" y="222" width="11" height="11" transform="rotate(0,436.5,227.5)"/><rect x="431" y="233" width="11" height="11" transform="rotate(0,436.5,238.5)"/><path d="M 431 244v 11h 11v -5.5a 5.5 5.5, 0, 0, 0, -5.5 -5.5" transform="rotate(180,436.5,249.5)"/><path d="M 431 266v 11h 11v -5.5a 5.5 5.5, 0, 0, 0, -5.5 -5.5" transform="rotate(0,436.5,271.5)"/><rect x="431" y="277" width="11" height="11" transform="rotate(0,436.5,282.5)"/><rect x="431" y="288" width="11" height="11" transform="rotate(0,436.5,293.5)"/><path d="M 431 299v 11h 11v -5.5a 5.5 5.5, 0, 0, 0, -5.5 -5.5" transform="rotate(90,436.5,304.5)"/><path d="M 431 321v 11h 5.5a 5.5 5.5, 0, 0, 0, 0 -11" transform="rotate(180,436.5,326.5)"/><rect x="431" y="409" width="11" height="11" transform="rotate(0,436.5,414.5)"/><rect x="431" y="431" width="11" height="11" transform="rotate(0,436.5,436.5)"/><path d="M 431 442v 11h 11v -5.5a 5.5 5.5, 0, 0, 0, -5.5 -5.5" transform="rotate(180,436.5,447.5)"/><path d="M 442 123v 11h 5.5a 5.5 5.5, 0, 0, 0, 0 -11" transform="rotate(0,447.5,128.5)"/><path d="M 442 178v 11h 5.5a 5.5 5.5, 0, 0, 0, 0 -11" transform="rotate(180,447.5,183.5)"/><rect x="442" y="200" width="11" height="11" transform="rotate(0,447.5,205.5)"/><rect x="442" y="222" width="11" height="11" transform="rotate(0,447.5,227.5)"/><path d="M 442 244v 11h 5.5a 5.5 5.5, 0, 0, 0, 0 -11" transform="rotate(0,447.5,249.5)"/><path d="M 442 321v 11h 5.5a 5.5 5.5, 0, 0, 0, 0 -11" transform="rotate(0,447.5,326.5)"/><path d="M 442 365v 11h 5.5a 5.5 5.5, 0, 0, 0, 0 -11" transform="rotate(180,447.5,370.5)"/><path d="M 442 387v 11h 5.5a 5.5 5.5, 0, 0, 0, 0 -11" transform="rotate(180,447.5,392.5)"/><path d="M 442 409v 11h 11v -5.5a 5.5 5.5, 0, 0, 0, -5.5 -5.5" transform="rotate(0,447.5,414.5)"/><rect x="442" y="420" width="11" height="11" transform="rotate(0,447.5,425.5)"/><rect x="442" y="431" width="11" height="11" transform="rotate(0,447.5,436.5)"/><rect x="442" y="442" width="11" height="11" transform="rotate(0,447.5,447.5)"/><path d="M 442 464v 11h 5.5a 5.5 5.5, 0, 0, 0, 0 -11" transform="rotate(180,447.5,469.5)"/><circle cx="458.5" cy="117.5" r="5.5" transform="rotate(0,458.5,117.5)"/><path d="M 453 134v 11h 5.5a 5.5 5.5, 0, 0, 0, 0 -11" transform="rotate(-90,458.5,139.5)"/><rect x="453" y="145" width="11" height="11" transform="rotate(0,458.5,150.5)"/><path d="M 453 156v 11h 5.5a 5.5 5.5, 0, 0, 0, 0 -11" transform="rotate(90,458.5,161.5)"/><path d="M 453 178v 11h 11v -5.5a 5.5 5.5, 0, 0, 0, -5.5 -5.5" transform="rotate(0,458.5,183.5)"/><rect x="453" y="189" width="11" height="11" transform="rotate(0,458.5,194.5)"/><rect x="453" y="200" width="11" height="11" transform="rotate(0,458.5,205.5)"/><rect x="453" y="211" width="11" height="11" transform="rotate(0,458.5,216.5)"/><rect x="453" y="222" width="11" height="11" transform="rotate(0,458.5,227.5)"/><path d="M 453 233v 11h 11v -5.5a 5.5 5.5, 0, 0, 0, -5.5 -5.5" transform="rotate(180,458.5,238.5)"/><circle cx="458.5" cy="260.5" r="5.5" transform="rotate(0,458.5,260.5)"/><circle cx="458.5" cy="337.5" r="5.5" transform="rotate(0,458.5,337.5)"/><path d="M 453 354v 11h 5.5a 5.5 5.5, 0, 0, 0, 0 -11" transform="rotate(-90,458.5,359.5)"/><rect x="453" y="365" width="11" height="11" transform="rotate(0,458.5,370.5)"/><path d="M 453 387v 11h 11v -5.5a 5.5 5.5, 0, 0, 0, -5.5 -5.5" transform="rotate(0,458.5,392.5)"/><path d="M 453 398v 11h 11v -5.5a 5.5 5.5, 0, 0, 0, -5.5 -5.5" transform="rotate(180,458.5,403.5)"/><rect x="453" y="420" width="11" height="11" transform="rotate(0,458.5,425.5)"/><rect x="453" y="431" width="11" height="11" transform="rotate(0,458.5,436.5)"/><rect x="453" y="442" width="11" height="11" transform="rotate(0,458.5,447.5)"/><path d="M 453 464v 11h 5.5a 5.5 5.5, 0, 0, 0, 0 -11" transform="rotate(0,458.5,469.5)"/><circle cx="469.5" cy="172.5" r="5.5" transform="rotate(0,469.5,172.5)"/><path d="M 464 189v 11h 5.5a 5.5 5.5, 0, 0, 0, 0 -11" transform="rotate(0,469.5,194.5)"/><path d="M 464 211v 11h 11v -5.5a 5.5 5.5, 0, 0, 0, -5.5 -5.5" transform="rotate(0,469.5,216.5)"/><rect x="464" y="222" width="11" height="11" transform="rotate(0,469.5,227.5)"/><rect x="464" y="233" width="11" height="11" transform="rotate(0,469.5,238.5)"/><path d="M 464 244v 11h 5.5a 5.5 5.5, 0, 0, 0, 0 -11" transform="rotate(90,469.5,249.5)"/><path d="M 464 266v 11h 5.5a 5.5 5.5, 0, 0, 0, 0 -11" transform="rotate(-90,469.5,271.5)"/><rect x="464" y="277" width="11" height="11" transform="rotate(0,469.5,282.5)"/><rect x="464" y="288" width="11" height="11" transform="rotate(0,469.5,293.5)"/><path d="M 464 299v 11h 5.5a 5.5 5.5, 0, 0, 0, 0 -11" transform="rotate(90,469.5,304.5)"/><path d="M 464 365v 11h 11v -5.5a 5.5 5.5, 0, 0, 0, -5.5 -5.5" transform="rotate(0,469.5,370.5)"/><path d="M 464 376v 11h 5.5a 5.5 5.5, 0, 0, 0, 0 -11" transform="rotate(90,469.5,381.5)"/><path d="M 464 398v 11h 5.5a 5.5 5.5, 0, 0, 0, 0 -11" transform="rotate(0,469.5,403.5)"/><path d="M 464 420v 11h 11v -5.5a 5.5 5.5, 0, 0, 0, -5.5 -5.5" transform="rotate(0,469.5,425.5)"/><rect x="464" y="431" width="11" height="11" transform="rotate(0,469.5,436.5)"/><path d="M 464 442v 11h 11v -5.5a 5.5 5.5, 0, 0, 0, -5.5 -5.5" transform="rotate(90,469.5,447.5)"/></clipPath><clipPath id="clip-path-corners-square-color-0-0"><path clip-rule="evenodd" d="M 24 51.5v 22a 27.5 27.5, 0, 0, 0, 27.5 27.5h 22a 27.5 27.5, 0, 0, 0, 27.5 -27.5v -22a 27.5 27.5, 0, 0, 0, -27.5 -27.5h -22a 27.5 27.5, 0, 0, 0, -27.5 27.5M 51.5 35h 22a 16.5 16.5, 0, 0, 1, 16.5 16.5v 22a 16.5 16.5, 0, 0, 1, -16.5 16.5h -22a 16.5 16.5, 0, 0, 1, -16.5 -16.5v -22a 16.5 16.5, 0, 0, 1, 16.5 -16.5" transform="rotate(0,62.5,62.5)"/></clipPath><clipPath id="clip-path-corners-dot-color-0-0"><circle cx="62.5" cy="62.5" r="16.5" transform="rotate(0,62.5,62.5)"/></clipPath><clipPath id="clip-path-corners-square-color-1-0"><path clip-rule="evenodd" d="M 398 51.5v 22a 27.5 27.5, 0, 0, 0, 27.5 27.5h 22a 27.5 27.5, 0, 0, 0, 27.5 -27.5v -22a 27.5 27.5, 0, 0, 0, -27.5 -27.5h -22a 27.5 27.5, 0, 0, 0, -27.5 27.5M 425.5 35h 22a 16.5 16.5, 0, 0, 1, 16.5 16.5v 22a 16.5 16.5, 0, 0, 1, -16.5 16.5h -22a 16.5 16.5, 0, 0, 1, -16.5 -16.5v -22a 16.5 16.5, 0, 0, 1, 16.5 -16.5" transform="rotate(90,436.5,62.5)"/></clipPath><clipPath id="clip-path-corners-dot-color-1-0"><circle cx="436.5" cy="62.5" r="16.5" transform="rotate(90,436.5,62.5)"/></clipPath><clipPath id="clip-path-corners-square-color-0-1"><path clip-rule="evenodd" d="M 24 425.5v 22a 27.5 27.5, 0, 0, 0, 27.5 27.5h 22a 27.5 27.5, 0, 0, 0, 27.5 -27.5v -22a 27.5 27.5, 0, 0, 0, -27.5 -27.5h -22a 27.5 27.5, 0, 0, 0, -27.5 27.5M 51.5 409h 22a 16.5 16.5, 0, 0, 1, 16.5 16.5v 22a 16.5 16.5, 0, 0, 1, -16.5 16.5h -22a 16.5 16.5, 0, 0, 1, -16.5 -16.5v -22a 16.5 16.5, 0, 0, 1, 16.5 -16.5" transform="rotate(-90,62.5,436.5)"/></clipPath><clipPath id="clip-path-corners-dot-color-0-1"><circle cx="62.5" cy="436.5" r="16.5" transform="rotate(-90,62.5,436.5)"/></clipPath></defs><rect x="0" y="0" height="500" width="500" clip-path="url('#clip-path-background-color')" fill="#fff"/><rect x="0" y="0" height="500" width="500" clip-path="url('#clip-path-dot-color')" fill="#18417E"/><rect x="24" y="24" height="77" width="77" clip-path="url('#clip-path-corners-square-color-0-0')" fill="#18417E"/><rect x="46" y="46" height="33" width="33" clip-path="url('#clip-path-corners-dot-color-0-0')" fill="#18417E"/><rect x="398" y="24" height="77" width="77" clip-path="url('#clip-path-corners-square-color-1-0')" fill="#18417E"/><rect x="420" y="46" height="33" width="33" clip-path="url('#clip-path-corners-dot-color-1-0')" fill="#18417E"/><rect x="24" y="398" height="77" width="77" clip-path="url('#clip-path-corners-square-color-0-1')" fill="#18417E"/><rect x="46" y="420" height="33" width="33" clip-path="url('#clip-path-corners-dot-color-0-1')" fill="#18417E"/></svg>