<svg xmlns="http://www.w3.org/2000/svg" viewBox="0 0 800 500">
  <!-- Background -->
  <rect width="800" height="500" fill="#ffffff"/>
  
  <!-- Title -->
  <text x="400" y="30" font-family="Arial" font-size="20" font-weight="bold" text-anchor="middle" fill="#0066cc">Domain-Specific Findings: ML for Combinatorial Optimization</text>
  
  <!-- TSP Section -->
  <rect x="50" y="60" width="220" height="370" rx="10" ry="10" fill="#f0f8ff" stroke="#0066cc" stroke-width="2"/>
  <rect x="50" y="60" width="220" height="40" rx="10" ry="10" fill="#0066cc" stroke="#0066cc" stroke-width="2"/>
  <text x="160" y="85" font-family="Arial" font-size="16" font-weight="bold" text-anchor="middle" fill="white">TSP</text>
  
  <!-- TSP Diagram -->
  <circle cx="90" cy="130" r="12" fill="#bbe1fa" stroke="#000000" stroke-width="1"/>
  <circle cx="160" cy="120" r="12" fill="#bbe1fa" stroke="#000000" stroke-width="1"/>
  <circle cx="210" cy="150" r="12" fill="#bbe1fa" stroke="#000000" stroke-width="1"/>
  <circle cx="180" cy="210" r="12" fill="#bbe1fa" stroke="#000000" stroke-width="1"/>
  <circle cx="100" cy="190" r="12" fill="#bbe1fa" stroke="#000000" stroke-width="1"/>
  
  <!-- TSP Path -->
  <path d="M 90,130 L 160,120 L 210,150 L 180,210 L 100,190 L 90,130" fill="none" stroke="#0066cc" stroke-width="2"/>
  
  <!-- TSP Findings -->
  <text x="160" y="250" font-family="Arial" font-size="14" font-weight="bold" text-anchor="middle" fill="#0066cc">Key Findings</text>
  
  <text x="160" y="285" font-family="Arial" font-size="12" text-anchor="middle">Pointer Networks show 1.5x speedup</text>
  <text x="160" y="315" font-family="Arial" font-size="12" text-anchor="middle">GNNs achieve &#60; 2% gap from optimal</text>
  <text x="160" y="345" font-family="Arial" font-size="12" text-anchor="middle">Reinforcement learning performs</text>
  <text x="160" y="361" font-family="Arial" font-size="12" text-anchor="middle">better than supervised for TSP</text>
  <text x="160" y="391" font-family="Arial" font-size="12" text-anchor="middle">Challenges remain for larger</text>
  <text x="160" y="407" font-family="Arial" font-size="12" text-anchor="middle">problem instances</text>
  
  <!-- MILP Section -->
  <rect x="290" y="60" width="220" height="370" rx="10" ry="10" fill="#f0f8ff" stroke="#0066cc" stroke-width="2"/>
  <rect x="290" y="60" width="220" height="40" rx="10" ry="10" fill="#0066cc" stroke="#0066cc" stroke-width="2"/>
  <text x="400" y="85" font-family="Arial" font-size="16" font-weight="bold" text-anchor="middle" fill="white">MILP (B&amp;B)</text>
  
  <!-- B&B Diagram -->
  <rect x="310" y="120" width="180" height="100" fill="none" stroke="#000000" stroke-width="0"/>
  
  <!-- B&B Tree -->
  <circle cx="400" cy="140" r="10" fill="#bbe1fa" stroke="#000000" stroke-width="1"/>
  <text x="400" y="143" font-family="Arial" font-size="8" text-anchor="middle">Root</text>
  
  <circle cx="360" cy="170" r="10" fill="#bbe1fa" stroke="#000000" stroke-width="1"/>
  <text x="360" y="173" font-family="Arial" font-size="8" text-anchor="middle">x₁=0</text>
  
  <circle cx="440" cy="170" r="10" fill="#bbe1fa" stroke="#000000" stroke-width="1"/>
  <text x="440" y="173" font-family="Arial" font-size="8" text-anchor="middle">x₁=1</text>
  
  <circle cx="330" cy="200" r="10" fill="#bbe1fa" stroke="#000000" stroke-width="1"/>
  <text x="330" y="203" font-family="Arial" font-size="8" text-anchor="middle">x₂=0</text>
  
  <circle cx="390" cy="200" r="10" fill="#d3d3d3" stroke="#999999" stroke-width="1" stroke-dasharray="2,2"/>
  <text x="390" y="203" font-family="Arial" font-size="8" text-anchor="middle">x₂=1</text>
  
  <text x="390" y="216" font-family="Arial" font-size="7" text-anchor="middle" fill="#999999">pruned</text>
  
  <!-- B&B Lines -->
  <line x1="400" y1="150" x2="360" y2="160" stroke="#000000" stroke-width="1"/>
  <line x1="400" y1="150" x2="440" y2="160" stroke="#000000" stroke-width="1"/>
  <line x1="360" y1="180" x2="330" y2="190" stroke="#000000" stroke-width="1"/>
  <line x1="360" y1="180" x2="390" y2="190" stroke="#999999" stroke-width="1" stroke-dasharray="2,2"/>
  
  <!-- ML Component -->
  <rect x="345" y="230" width="110" height="20" rx="5" ry="5" fill="#aed6f1" stroke="#0066cc" stroke-width="1"/>
  <text x="400" y="244" font-family="Arial" font-size="10" text-anchor="middle">ML Guides Branching</text>
  
  <!-- MILP Findings -->
  <text x="400" y="270" font-family="Arial" font-size="14" font-weight="bold" text-anchor="middle" fill="#0066cc">Key Findings</text>
  
  <text x="400" y="305" font-family="Arial" font-size="12" text-anchor="middle">ExtraTrees approach achieves 3x</text>
  <text x="400" y="321" font-family="Arial" font-size="12" text-anchor="middle">speedup vs. strong branching</text>
  
  <text x="400" y="351" font-family="Arial" font-size="12" text-anchor="middle">TreeGate shows 27% reduction</text>
  <text x="400" y="367" font-family="Arial" font-size="12" text-anchor="middle">in nodes explored</text>
  
  <text x="400" y="397" font-family="Arial" font-size="12" text-anchor="middle">Tree state parameterization</text>
  <text x="400" y="413" font-family="Arial" font-size="12" text-anchor="middle">improves generalization</text>
  
  <!-- SAT Section -->
  <rect x="530" y="60" width="220" height="370" rx="10" ry="10" fill="#f0f8ff" stroke="#0066cc" stroke-width="2"/>
  <rect x="530" y="60" width="220" height="40" rx="10" ry="10" fill="#0066cc" stroke="#0066cc" stroke-width="2"/>
  <text x="640" y="85" font-family="Arial" font-size="16" font-weight="bold" text-anchor="middle" fill="white">SAT Solvers</text>
  
  <!-- Boolean Formula -->
  <rect x="550" y="120" width="180" height="120" fill="none" stroke="#000000" stroke-width="0"/>
  
  <!-- CNF Formula -->
  <text x="640" y="140" font-family="Arial" font-size="12" text-anchor="middle" font-style="italic">CNF Formula:</text>
  <text x="640" y="165" font-family="Arial" font-size="12" text-anchor="middle">(x₁ ∨ x₂ ∨ ¬x₃)</text>
  <text x="640" y="185" font-family="Arial" font-size="12" text-anchor="middle">∧</text>
  <text x="640" y="205" font-family="Arial" font-size="12" text-anchor="middle">(¬x₁ ∨ x₃ ∨ x₄)</text>
  <text x="640" y="225" font-family="Arial" font-size="12" text-anchor="middle">∧</text>
  <text x="640" y="245" font-family="Arial" font-size="12" text-anchor="middle">(x₂ ∨ ¬x₃ ∨ ¬x₄)</text>
  
  <!-- SAT Findings -->
  <text x="640" y="270" font-family="Arial" font-size="14" font-weight="bold" text-anchor="middle" fill="#0066cc">Key Findings</text>
  
  <text x="640" y="305" font-family="Arial" font-size="12" text-anchor="middle">Graph-Q-SAT reduces solving</text>
  <text x="640" y="321" font-family="Arial" font-size="12" text-anchor="middle">iterations by 2-3x</text>
  
  <text x="640" y="351" font-family="Arial" font-size="12" text-anchor="middle">GNNs effectively capture variable</text>
  <text x="640" y="367" font-family="Arial" font-size="12" text-anchor="middle">relationships in SAT instances</text>
  
  <text x="640" y="397" font-family="Arial" font-size="12" text-anchor="middle">RL-based approaches generalize</text>
  <text x="640" y="413" font-family="Arial" font-size="12" text-anchor="middle">well across SAT domains</text>
  
  <!-- Bottom Summary -->
  <rect x="50" y="440" width="700" height="50" rx="5" ry="5" fill="#e6f2ff" stroke="#0066cc" stroke-width="1"/>
  <text x="400" y="465" font-family="Arial" font-size="14" font-weight="bold" text-anchor="middle" fill="#0066cc">Common Pattern: Graph Neural Networks show promise across all domains</text>
  <text x="400" y="482" font-family="Arial" font-size="12" text-anchor="middle">Hybrid approaches combining ML with traditional algorithms yield best performance</text>
</svg>